<?xml version="1.0" encoding="UTF-8"?>
<svg width="80px" height="80px" viewBox="0 0 80 80" version="1.1" xmlns="http://www.w3.org/2000/svg" xmlns:xlink="http://www.w3.org/1999/xlink">
    <!-- Generator: Sketch 41.2 (35397) - http://www.bohemiancoding.com/sketch -->
    <title>css_logo</title>
    <desc>Created with Sketch.</desc>
    <defs></defs>
    <g id="Page-1" stroke="none" stroke-width="1" fill="none" fill-rule="evenodd">
        <g id="iPad-Pro-Portrait" transform="translate(-270.000000, -189.000000)">
            <rect id="Rectangle-Copy-6" fill="#D4D4D4" opacity="0" x="270" y="189" width="80" height="80"></rect>
            <path d="M277.364499,193.999833 C277.27217,192.895356 278.099774,192 279.196582,192 L340.803418,192 C341.907578,192 342.724496,192.890812 342.627806,193.992524 L337.134466,256.584702 C337.037887,257.685142 336.095184,258.817028 335.03482,259.111192 L311.511961,265.63684 C310.448937,265.931741 308.72573,265.934603 307.659516,265.642257 L284.710956,259.349987 C283.646333,259.058077 282.708545,257.927359 282.616109,256.821605 L277.364499,193.999833 Z" id="Path-8-Copy" stroke="#874C10" stroke-width="5" fill="#1572B6"></path>
            <path d="M310.197323,198.9947 C310.197323,198.445342 310.652848,198 311.194098,198 L335.445235,198 C335.995738,198 336.403225,198.4474 336.356334,198.988309 L331.709358,252.593128 C331.662041,253.138956 331.195682,253.70434 330.661411,253.857759 L311.159594,259.457813 C310.628146,259.610422 310.197323,259.289992 310.197323,258.739435 L310.197323,198.9947 Z" id="Path-9-Copy" fill="#33A9DC"></path>
            <polygon id="Path-11" fill="#FFFFFF" points="290.2396 205.193072 330.512908 205.193072 327.307404 246.483455 310.356543 251.341298 293.486809 246.118295 292.585006 233.634794 300.780493 233.634794 300.718348 239.455592 309.830504 242.371199 319.575484 239.716013 320.180034 229.274591 301.04843 229.274591 301.04843 221.438415 321.085489 221.438415 321.595984 212.827472 290.905058 213.029026"></polygon>
            <polygon id="Path-11-Copy" fill="#F5F5F5" points="290.2396 205.193072 310.217004 205.193072 310.217004 251.341298 293.486809 246.118295 292.585006 233.634794 300.780493 233.634794 300.718348 239.455592 310.217004 242.478408 310.217004 229.274591 301.04843 229.274591 301.04843 221.438415 310.217004 221.438415 310.217004 212.902231 290.905058 213.029026"></polygon>
        </g>
    </g>
</svg>