<?xml version="1.0" encoding="UTF-8"?>
<svg width="120px" height="120px" viewBox="0 0 120 120" version="1.1" xmlns="http://www.w3.org/2000/svg" xmlns:xlink="http://www.w3.org/1999/xlink">
    <!-- Generator: Sketch 41.2 (35397) - http://www.bohemiancoding.com/sketch -->
    <title>grpahicd</title>
    <desc>Created with Sketch.</desc>
    <defs>
        <polygon id="path-1" points="30.6408456 5.6389583 30.6408456 0.247847673 0.23318506 0.247847673 0.23318506 5.6389583 30.6408456 5.6389583"></polygon>
    </defs>
    <g id="Page-1" stroke="none" stroke-width="1" fill="none" fill-rule="evenodd">
        <g id="iPad-Pro-Portrait-Copy" transform="translate(-596.000000, -794.000000)">
            <g id="Group-15" transform="translate(606.000000, 805.000000)">
                <polygon id="Stroke-5" stroke="#824C23" stroke-width="2" fill="#FFFFFF" points="48.4664192 66.6346836 93.9342584 66.6346836 93.9342584 1.47790746 48.4664192 1.47790746"></polygon>
                <polygon id="Fill-3" stroke="#874C10" stroke-width="2" fill="#F4D747" points="8.43243243 95.3871998 97.4414414 95.3871998 97.4414414 66.9712446"></polygon>
                <polygon id="Fill-4" fill="#824C23" points="0 38.7660358 0 98.1896776 101.324728 74.9453642 101.324728 38.7660358"></polygon>
                <polygon id="Fill-7" fill="#F4D747" points="34.4028867 48.5309821 65.5359428 48.5309821 65.5359428 10.9981612 34.4028867 10.9981612"></polygon>
                <polygon id="Fill-8" fill="#C7733F" points="68.1239411 25.528997 89.2503669 25.528997 89.2503669 5.68614627 68.1239411 5.68614627"></polygon>
                <polygon id="Fill-9" fill="#824C23" points="68.1239411 29.5392358 89.2503669 29.5392358 89.2503669 26.968191 68.1239411 26.968191"></polygon>
                <polygon id="Fill-10" fill="#F4D747" points="0 3.2022806 43.8462642 3.2022806 43.8462642 0.182041791 0 0.182041791"></polygon>
                <polygon id="Fill-11" fill="#F4D747" points="0 8.51429552 43.8462642 8.51429552 43.8462642 5.49405672 0 5.49405672"></polygon>
                <polygon id="Fill-12" fill="#F4D747" points="0 13.8263104 31.5955163 13.8263104 31.5955163 10.8075493 0 10.8075493"></polygon>
                <polygon id="Fill-13" fill="#F4D747" points="0 19.1383254 31.5955163 19.1383254 31.5955163 16.1195642 0 16.1195642"></polygon>
                <polygon id="Fill-14" fill="#F4D747" points="0 24.4518179 31.5955163 24.4518179 31.5955163 21.4330567 0 21.4330567"></polygon>
                <polygon id="Fill-15" fill="#F4D747" points="0 29.7638328 31.5955163 29.7638328 31.5955163 26.7450716 0 26.7450716"></polygon>
                <polygon id="Fill-16" fill="#F4D747" points="0 35.0773254 31.5955163 35.0773254 31.5955163 32.0585642 0 32.0585642"></polygon>
                <polygon id="Fill-17" fill="#824C23" points="38.2018784 16.8820119 62.7315369 16.8820119 62.7315369 14.1469522 38.2018784 14.1469522"></polygon>
                <polygon id="Fill-18" fill="#824C23" points="38.2018784 21.6960716 62.7315369 21.6960716 62.7315369 18.9610119 38.2018784 18.9610119"></polygon>
                <polygon id="Fill-19" fill="#824C23" points="38.2018784 26.5086537 62.6544602 26.5086537 62.6544602 23.773594 38.2018784 23.773594"></polygon>
                <polygon id="Fill-20" fill="#824C23" points="38.2018784 31.3212358 62.6544602 31.3212358 62.6544602 28.5861761 38.2018784 28.5861761"></polygon>
                <polygon id="Fill-21" fill="#C7733F" points="38.2018784 45.4294746 49.4135732 45.4294746 49.4135732 33.4002358 38.2018784 33.4002358"></polygon>
                <g id="Group-13" transform="translate(62.774775, 78.452830)">
                    <path d="M7.33739924,5.75533623 C5.48637843,5.75533623 4.47591779,4.82574448 3.73499848,4.14647758 C3.08988771,3.55456362 2.7207055,3.1556084 1.80988574,3.20645563 C1.13794858,3.18298768 0.526051425,2.6340983 0.519664189,1.91702192 C0.511999507,1.19603421 1.07790856,0.606727798 1.78305935,0.598905147 C3.63535761,0.581956069 4.69563869,1.52197802 5.44422267,2.20776379 C6.08933345,2.79967775 6.45340587,3.10606494 7.36933542,3.14778574 C8.26227093,3.13865932 8.6442276,2.77360225 9.27656391,2.16734676 C10.011096,1.46461191 11.0164468,0.502425779 12.9045136,0.481565375 C14.7938578,0.456793646 15.8196478,1.40333447 16.5682318,2.09042402 C17.2133426,2.68364176 17.5416465,3.05130638 18.4971769,3.03044597 C19.3926673,3.02131955 19.774624,2.6549587 20.4082377,2.05000699 C21.1440473,1.34727214 22.1506756,0.385086007 24.0400198,0.364225603 C25.9613002,0.332934998 26.9564315,1.2859947 27.7050155,1.97308425 C28.3424615,2.55847933 28.7308055,2.9131062 29.6020244,2.9131062 L29.6492899,2.9131062 C30.3493309,2.9131062 30.9190723,3.48937486 30.926737,4.20384369 C30.9344017,4.92352762 30.3672152,5.51283403 29.6620644,5.52065668 L29.6033018,5.52065668 C27.7510035,5.52065668 26.7392655,4.59236871 25.9970687,3.91310181 C25.3506805,3.31988408 24.9776659,2.94830813 24.0668462,2.97177609 C23.1713558,2.98090251 22.7881216,3.34726336 22.1545079,3.95221507 C21.4186984,4.65494992 20.4120701,5.61843983 18.5227259,5.63799646 C16.6653178,5.6301738 15.6088691,4.71753113 14.8602851,4.02913781 C14.2138969,3.43722385 13.8689862,3.05130638 12.9300625,3.08911586 C12.0384045,3.09824228 11.6564478,3.46329935 11.0241115,4.06955484 C10.2908569,4.77228969 9.28422859,5.73447582 7.39616181,5.75533623 L7.33739924,5.75533623 Z" id="Fill-22" fill="#C7733F"></path>
                    <g id="Group-26" transform="translate(10.104222, 7.736553)">
                        <mask id="mask-2" fill="white">
                            <use xlink:href="#path-1"></use>
                        </mask>
                        <g id="Clip-25"></g>
                        <path d="M7.05227434,5.6389583 C5.20125352,5.6389583 4.19079288,4.70936655 3.44987358,4.03009965 C2.8047628,3.43818569 2.43685805,3.09790035 1.52348338,3.0900777 L1.51070891,3.0900777 C0.810667916,3.0900777 0.240926519,2.51511282 0.233261836,1.80064399 C0.225597154,1.07965628 0.792783656,0.490349868 1.49793444,0.482527217 C3.36300718,0.479919666 4.41051378,1.40429631 5.15909777,2.09138586 C5.8029311,2.68329982 6.1503967,2.99881343 7.08421051,3.03140781 C7.97714602,3.02228139 8.35782525,2.65722432 8.991439,2.05096883 C9.72469362,1.34823398 10.7313219,0.386047849 12.6193887,0.365187445 C14.4665772,0.296087357 15.5332455,1.28565277 16.2831069,1.97404609 C16.9282177,2.56726383 17.3076195,2.88147366 18.2107746,2.91406804 C19.106265,2.90494162 19.4894991,2.53858077 20.1231128,1.93362906 C20.8589224,1.23089421 21.8655507,0.268708077 23.7548949,0.247847673 C25.6378519,0.293479807 26.6700291,1.16831299 27.4198905,1.85670632 C28.0650013,2.44992406 28.4009699,2.8162849 29.3513905,2.79672827 C30.0680383,2.83975285 30.6339474,3.3690856 30.6416121,4.08746576 C30.6492768,4.80714969 30.0820903,5.3964561 29.3769395,5.40427875 C27.5093118,5.47077129 26.4618052,4.48381343 25.7119438,3.79672388 C25.066833,3.20350615 24.6746568,2.8162849 23.7804438,2.85539816 C22.8862309,2.86452458 22.5029967,3.23088543 21.869383,3.83583714 C21.1335735,4.53857199 20.1269452,5.5020619 18.2376009,5.52161853 L18.1788384,5.52161853 C16.3278176,5.52161853 15.314802,4.59333055 14.5738827,3.91275988 C13.928772,3.32214969 13.588971,2.98186435 12.6449376,2.97273793 C11.7532796,2.98186435 11.3713229,3.34692142 10.7389866,3.95317691 C10.0044545,4.65591176 8.99910368,5.61809789 7.1110369,5.6389583 L7.05227434,5.6389583 Z" id="Fill-24" fill="#C7733F" mask="url(#mask-2)"></path>
                    </g>
                </g>
                <g id="Group-14" transform="translate(7.495495, 51.367925)" fill="#FEFEFE">
                    <path d="M15.4090558,9.87858685 C15.0164914,8.7979446 14.6571016,7.78291754 14.3336507,6.83886204 C14.0074353,5.89346745 13.7406574,4.98288909 13.5333171,4.10444879 C13.4462341,4.54232986 13.3453285,4.96815915 13.229218,5.37791941 C13.1117251,5.78767967 12.9873209,6.20681353 12.8518586,6.63532099 C12.7163963,7.06248937 12.5629644,7.51108312 12.3929454,7.98110224 C12.2201618,8.44978228 12.0238796,8.96934758 11.8040989,9.53979814 L9.24690172,16.2579917 L17.7450899,16.2579917 L15.4090558,9.87858685 Z M8.52950425,18.0938784 L7.09332703,21.9250029 C6.9841278,22.2088891 6.89704487,22.4914362 6.83622504,22.7713051 C6.77540522,23.0511741 6.74361304,23.2908704 6.74361304,23.4930724 C6.74361304,24.11173 6.94957108,24.5616629 7.36010489,24.8482272 C7.77202098,25.1321134 8.39957098,25.2753956 9.24690172,25.2753956 L10.1108197,25.2753956 L10.1108197,26.8086489 L0.913203504,26.8086489 L0.913203504,25.2753956 L1.62921871,25.2753956 C1.99828446,25.2753956 2.31205947,25.2379012 2.56777918,25.1602342 C2.82626344,25.0825673 3.05986685,24.9366069 3.26720716,24.7236923 C3.47592974,24.5094385 3.67497644,24.2175178 3.86434726,23.8506083 C4.05510034,23.4810206 4.26658746,23.0056452 4.50019088,22.4231428 L12.8518586,0.75405607 L15.7947087,0.75405607 L24.313631,23.3323821 C24.4601514,23.7126825 24.6094365,24.0273676 24.7642506,24.2777767 C24.9176824,24.5281857 25.0973773,24.7250313 25.3060999,24.8736699 C25.5148225,25.0236475 25.753955,25.1267571 26.0234974,25.187016 C26.2930398,25.2472748 26.6123439,25.2753956 26.9800273,25.2753956 L27.4762618,25.2753956 L27.4762618,26.8086489 L17.1203044,26.8086489 L17.1203044,25.2753956 L17.9842224,25.2753956 C19.4936599,25.2753956 20.2469963,24.6928933 20.2469963,23.5292277 C20.2469963,23.3270258 20.219351,23.1181284 20.1640602,22.9052137 C20.1087695,22.69096 20.0327447,22.4485855 19.9346036,22.1754119 L18.4251661,18.0938784 L8.52950425,18.0938784 Z" id="Fill-27"></path>
                    <path d="M33.2946456,22.7565752 C33.2946456,23.6296591 33.4853987,24.2817939 33.8655226,24.7143187 C34.2456465,25.1468434 34.834493,25.3610971 35.6334443,25.3610971 C36.2153795,25.3610971 36.7420239,25.2713784 37.216142,25.0892627 C37.6902602,24.907147 38.0938827,24.6487035 38.4270094,24.3112538 C38.7615185,23.9751433 39.0158559,23.5667221 39.1941686,23.0833121 C39.3738635,22.6025803 39.4623287,22.066946 39.4623287,21.4750701 L39.4623287,19.2093369 L37.6183822,19.2923602 C36.8014614,19.3285155 36.1186206,19.4262688 35.5684777,19.58562 C35.019717,19.7449712 34.5760087,19.9672594 34.2387352,20.2524847 C33.9000793,20.5403882 33.6581823,20.8912286 33.5130441,21.3103625 C33.3679059,21.7294964 33.2946456,22.2115673 33.2946456,22.7565752 M36.7862564,12.9491106 C36.233349,12.9491106 35.7854939,13.0240994 35.4426912,13.172738 C35.0985063,13.3227156 34.8317285,13.5356302 34.6395931,13.8074647 C34.4474577,14.0819772 34.3175245,14.4033578 34.2525579,14.7769628 C34.186209,15.1505677 34.1544168,15.5549716 34.1544168,15.9901745 C33.3568477,15.9901745 32.7486495,15.8589441 32.329822,15.5951442 C31.9123769,15.3300052 31.7036543,14.8760551 31.7036543,14.2319549 C31.7036543,13.7485449 31.8391166,13.3401237 32.1128058,13.0040132 C32.3837305,12.6665635 32.7583254,12.3920509 33.2324435,12.1791363 C33.7051794,11.9635435 34.2567047,11.8082095 34.8856369,11.706439 C35.5145692,11.6086857 36.1863518,11.5564614 36.8996025,11.5564614 C37.7814899,11.5564614 38.5514136,11.6421629 39.2093735,11.8095486 C39.8659512,11.9782734 40.4160942,12.252786 40.8556556,12.6344255 C41.2979816,13.017404 41.6283438,13.5155439 41.8495068,14.1288452 C42.0692876,14.7434856 42.1798691,15.4947128 42.1798691,16.3852049 L42.1798691,23.6296591 C42.1798691,24.0206722 42.2130435,24.3433919 42.2793924,24.5991573 C42.344359,24.8535836 42.4480292,25.0571246 42.5890206,25.2124586 C42.7286298,25.3664535 42.915236,25.4749194 43.1446926,25.5405346 C43.3755315,25.6021326 43.6492207,25.6356097 43.9685248,25.6356097 L44.0528432,25.6356097 L44.0528432,26.8073098 L40.1520808,26.8073098 L39.7014612,24.4063289 L39.4623287,24.4063289 C39.1623764,24.7986811 38.8707177,25.1575561 38.5887349,25.484293 C38.3081343,25.812369 37.9971239,26.0949161 37.6598503,26.3305952 C37.3225767,26.5662744 36.9396883,26.7510682 36.5125672,26.8822986 C36.0854462,27.0148681 35.5712422,27.0818224 34.9699553,27.0818224 C34.3313472,27.0818224 33.7383539,26.9921036 33.1895932,26.8153443 C32.6408325,26.6372459 32.1667143,26.3654115 31.7672387,25.9958238 C31.3691453,25.6275752 31.0567525,25.1629124 30.8300605,24.6045136 C30.6061329,24.0461148 30.4927869,23.3846064 30.4927869,22.6199884 C30.4927869,21.1389595 31.0374008,20.038231 32.1266285,19.3191419 C33.214474,18.6000528 34.8621384,18.2090397 37.0682393,18.1461027 L39.4623287,18.0644185 L39.4623287,16.3852049 C39.4623287,15.8857258 39.4346834,15.4237412 39.3780103,15.0019292 C39.3213373,14.5801172 39.1996977,14.2145467 39.0117091,13.9105743 C38.8237206,13.6066018 38.5541782,13.3682445 38.2016996,13.2008588 C37.8506034,13.032134 37.3778675,12.9491106 36.7862564,12.9491106" id="Fill-29"></path>
                </g>
                <rect id="Rectangle-18" fill="#FFFFFF" x="87.020055" y="42.9622642" width="10.4213865" height="10.2735849"></rect>
            </g>
        </g>
    </g>
</svg>