<?xml version="1.0" encoding="UTF-8"?>
<svg width="80px" height="80px" viewBox="0 0 80 80" version="1.1" xmlns="http://www.w3.org/2000/svg" xmlns:xlink="http://www.w3.org/1999/xlink">
    <!-- Generator: Sketch 41.2 (35397) - http://www.bohemiancoding.com/sketch -->
    <title>h5_logo</title>
    <desc>Created with Sketch.</desc>
    <defs></defs>
    <g id="Page-1" stroke="none" stroke-width="1" fill="none" fill-rule="evenodd">
        <g id="iPad-Pro-Portrait" transform="translate(-170.000000, -189.000000)">
            <rect id="Rectangle-Copy-5" fill="#D4D4D4" opacity="0" x="170" y="189" width="80" height="80"></rect>
            <path d="M178.167177,193.999833 C178.074848,192.895356 178.902451,192 179.99926,192 L241.606095,192 C242.710256,192 243.527174,192.890812 243.430483,193.992524 L237.937144,256.584702 C237.840564,257.685142 236.897861,258.817028 235.837497,259.111192 L212.314638,265.63684 C211.251615,265.931741 209.528408,265.934603 208.462193,265.642257 L185.513633,259.349987 C184.44901,259.058077 183.511222,257.927359 183.418786,256.821605 L178.167177,193.999833 Z" id="Path-8" stroke="#874C10" stroke-width="5" fill="#E44F26"></path>
            <path d="M210.006429,198.993746 C210.002878,198.444915 210.455526,198 210.996775,198 L235.247912,198 C235.798416,198 236.205903,198.4474 236.159011,198.988309 L231.512036,252.593128 C231.464718,253.138956 230.987174,253.708707 230.468218,253.859094 L211.357156,259.397223 C210.82799,259.550569 210.396145,259.231164 210.392586,258.681134 L210.006429,198.993746 Z" id="Path-9" fill="#F1662A"></path>
            <polygon id="Path-10" fill="#FFFFFF" points="189.566269 205.06315 231.830246 205.041038 230.956436 213.963248 198.62767 213.963248 198.982098 221.874872 229.334667 221.874872 227.349544 247.07306 210.291436 252.157377 193.200285 247.254796 191.971946 234.722148 200.326087 234.743697 200.863396 240.40986 209.805129 243.14453 219.343073 241.098017 219.968017 230.477554 192.081258 230.477554"></polygon>
            <polygon id="Path-10-Copy" fill="#EEEEEE" points="189.566269 205.06315 210.265324 205.06315 210.265324 213.963248 198.62767 213.963248 198.982098 221.874872 210.265324 221.874872 210.291436 252.157377 193.200285 247.254796 191.971946 234.722148 200.326087 234.743697 200.863396 240.40986 210.265324 243.244817 210.265324 230.477554 192.081258 230.477554"></polygon>
        </g>
    </g>
</svg>