<?xml version="1.0" encoding="UTF-8"?>
<svg width="120px" height="120px" viewBox="0 0 120 120" version="1.1" xmlns="http://www.w3.org/2000/svg" xmlns:xlink="http://www.w3.org/1999/xlink">
    <!-- Generator: Sketch 41.2 (35397) - http://www.bohemiancoding.com/sketch -->
    <title>infod</title>
    <desc>Created with Sketch.</desc>
    <defs></defs>
    <g id="Page-1" stroke="none" stroke-width="1" fill="none" fill-rule="evenodd">
        <g id="iPad-Pro-Portrait-Copy" transform="translate(-365.000000, -794.000000)">
            <g id="Group-21" transform="translate(365.000000, 794.000000)">
                <polygon id="Fill-1" fill="#F4D747" points="17.110137 85.5286179 112.017096 85.5286179 112.017096 22.1741385 17.110137 22.1741385"></polygon>
                <polygon id="Stroke-2" stroke="#824C23" stroke-width="2" points="13.1054247 81.0661908 108.012384 81.0661908 108.012384 17.7117114 13.1054247 17.7117114"></polygon>
                <path d="M111.746279,19.9776532 L9.36907397,19.9776532 C6.98025205,19.9776532 5.04403288,18.0384028 5.04403288,15.6458412 C5.04403288,13.2532795 6.98025205,11.3124925 9.36907397,11.3124925 L111.746279,11.3124925 C114.135101,11.3124925 116.071321,13.2532795 116.071321,15.6458412 C116.071321,18.0384028 114.135101,19.9776532 111.746279,19.9776532 Z" id="Fill-3" fill="#824C23"></path>
                <polygon id="Fill-5" fill="#F4D747" points="19.1334795 11.3131072 26.0007671 11.3131072 26.0007671 4.43506864 19.1334795 4.43506864"></polygon>
                <polygon id="Fill-7" fill="#F4D747" points="95.1155068 11.3131072 101.982795 11.3131072 101.982795 4.43506864 95.1155068 4.43506864"></polygon>
                <polygon id="Fill-8" fill="#824C23" points="30.2767123 28.767897 65.2130411 28.767897 65.2130411 27.1866858 30.2767123 27.1866858"></polygon>
                <polygon id="Fill-9" fill="#C7733F" points="30.2767123 32.0747645 53.9700822 32.0747645 53.9700822 30.4935533 30.2767123 30.4935533"></polygon>
                <polygon id="Fill-10" fill="#C7733F" points="30.2767123 35.381632 53.9700822 35.381632 53.9700822 33.8004208 30.2767123 33.8004208"></polygon>
                <polygon id="Fill-11" fill="#824C23" points="30.2767123 38.6869629 65.2130411 38.6869629 65.2130411 37.1057516 30.2767123 37.1057516"></polygon>
                <polygon id="Fill-12" fill="#C7733F" points="30.2767123 41.9938304 53.9700822 41.9938304 53.9700822 40.4126191 30.2767123 40.4126191"></polygon>
                <polygon id="Fill-13" fill="#C7733F" points="30.2767123 45.3006978 53.9700822 45.3006978 53.9700822 43.7194866 30.2767123 43.7194866"></polygon>
                <polygon id="Fill-14" fill="#824C23" points="30.2767123 48.6075653 65.2130411 48.6075653 65.2130411 47.0263541 30.2767123 47.0263541"></polygon>
                <path d="M27.3969315,29.6046021 C27.3969315,30.9399496 26.3152877,32.0232868 24.9820274,32.0232868 C23.6487671,32.0232868 22.5671233,30.9399496 22.5671233,29.6046021 C22.5671233,28.2692546 23.6487671,27.1859174 24.9820274,27.1859174 C26.3152877,27.1859174 27.3969315,28.2692546 27.3969315,29.6046021" id="Fill-15" fill="#FFFFFF"></path>
                <path d="M27.3969315,39.5245899 C27.3969315,40.8599375 26.3152877,41.9432746 24.9820274,41.9432746 C23.6487671,41.9432746 22.5671233,40.8599375 22.5671233,39.5245899 C22.5671233,38.1892424 23.6487671,37.1059053 24.9820274,37.1059053 C26.3152877,37.1059053 27.3969315,38.1892424 27.3969315,39.5245899" id="Fill-16" fill="#FFFFFF"></path>
                <path d="M72.0204932,74.7390408 L65.4999452,74.7390408 L65.4999452,56.7955967 C65.4999452,55.9473667 66.1872877,55.2589482 67.0341918,55.2589482 L70.4862466,55.2589482 C71.3331507,55.2589482 72.0204932,55.9473667 72.0204932,56.7955967 L72.0204932,74.7390408 Z" id="Stroke-17" stroke="#824C23" stroke-width="2" fill="#D27E3E"></path>
                <path d="M81.2259726,74.7390408 L74.7054247,74.7390408 L74.7054247,37.4689911 C74.7054247,36.5123286 75.3927671,35.7390408 76.2396712,35.7390408 L79.691726,35.7390408 C80.5386301,35.7390408 81.2259726,36.5123286 81.2259726,37.4689911 L81.2259726,74.7390408 Z" id="Fill-18" fill="#FEFEFE"></path>
                <path d="M81.2259726,74.7390408 L74.7054247,74.7390408 L74.7054247,37.4689911 C74.7054247,36.5123286 75.3927671,35.7390408 76.2396712,35.7390408 L79.691726,35.7390408 C80.5386301,35.7390408 81.2259726,36.5123286 81.2259726,37.4689911 L81.2259726,74.7390408 Z" id="Stroke-19" stroke="#824C23" stroke-width="2"></path>
                <path d="M90.9007781,74.7390408 L84.3802301,74.7390408 L84.3802301,56.090275 C84.3802301,55.2420451 85.0675726,54.5536266 85.9144767,54.5536266 L89.3665315,54.5536266 C90.2134356,54.5536266 90.9007781,55.2420451 90.9007781,56.090275 L90.9007781,74.7390408 Z" id="Stroke-20" stroke="#824C23" stroke-width="2" fill="#D27E3E"></path>
                <path d="M100.023408,74.7390408 L93.5028603,74.7390408 L93.5028603,30.1316725 C93.5028603,29.2819059 94.1902027,28.5950241 95.0371068,28.5950241 L98.4891616,28.5950241 C99.3360658,28.5950241 100.023408,29.2819059 100.023408,30.1316725 L100.023408,74.7390408 Z" id="Fill-21" fill="#FEFEFE"></path>
                <path d="M100.023408,74.7390408 L93.5028603,74.7390408 L93.5028603,30.1316725 C93.5028603,29.2819059 94.1902027,28.5950241 95.0371068,28.5950241 L98.4891616,28.5950241 C99.3360658,28.5950241 100.023408,29.2819059 100.023408,30.1316725 L100.023408,74.7390408 Z" id="Stroke-22" stroke="#824C23" stroke-width="2"></path>
                <polygon id="Fill-23" fill="#824C23" points="63.4333151 76.0966697 102.769863 76.0966697 102.769863 73.3798752 63.4333151 73.3798752"></polygon>
                <path d="M25.0012274,70.1022016 C25.0012274,70.1022016 55.033249,73.4181883 54.0710189,55" id="Stroke-36" stroke="#C7733F" stroke-width="2" stroke-linecap="round"></path>
                <polyline id="Stroke-24" stroke="#824C23" stroke-width="2" points="24.9821808 53.1448272 24.9821808 63.9413193 24.9821808 74.7393481 57.6800438 74.7393481"></polyline>
                <path d="M58.9774247,91.9933912 C58.9774247,93.6468249 57.6395616,94.9867824 55.9887123,94.9867824 C54.337863,94.9867824 53,93.6468249 53,91.9933912 C53,90.3399575 54.337863,89 55.9887123,89 C57.6395616,89 58.9774247,90.3399575 58.9774247,91.9933912 Z" id="Fill-29" fill="#F4D747"></path>
                <path d="M58.9774247,100.993391 C58.9774247,102.646825 57.6395616,103.986782 55.9887123,103.986782 C54.337863,103.986782 53,102.646825 53,100.993391 C53,99.3399575 54.337863,98 55.9887123,98 C57.6395616,98 58.9774247,99.3399575 58.9774247,100.993391" id="Fill-31" fill="#D27E3E"></path>
                <path d="M58.9774247,109.993391 C58.9774247,111.646825 57.6395616,112.986782 55.9887123,112.986782 C54.337863,112.986782 53,111.646825 53,109.993391 C53,108.339957 54.337863,107 55.9887123,107 C57.6395616,107 58.9774247,108.339957 58.9774247,109.993391" id="Fill-31-Copy" fill="#824C23"></path>
                <polygon id="Fill-33" fill="#F4D747" points="62.6458691 94 110.936329 94 110.936329 90 62.6458691 90"></polygon>
                <polygon id="Fill-33-Copy" fill="#D27E3E" points="62.6458691 103 102.554993 103 102.554993 99 62.6458691 99"></polygon>
                <polygon id="Fill-33-Copy-2" fill="#824C23" points="62.6458691 112 80.2047661 112 80.2047661 108 62.6458691 108"></polygon>
                <g id="Group-19" transform="translate(4.000000, 72.000000)">
                    <g id="Group-18">
                        <path d="M35.649908,29.699221 C31.36465,36.9726198 22.5930971,40.7752547 14.063582,38.4257129 C3.86890024,35.616047 -2.11723489,25.0755025 0.693312425,14.8840178 C3.50385974,4.69253303 14.0463881,-1.29172489 24.2423924,1.51794106 C26.9828414,2.27291482 29.4190899,3.58717739 31.4612005,5.30206526 L19.1529872,19.971827 L35.649908,29.699221" id="Fill-26" fill="#FFFFFF"></path>
                        <path d="M37.6544565,24.8790243 C35.4562778,33.0290388 28.0113033,39.0265187 19.1643617,39.0265187 C8.59009069,39.0265187 0.0169294144,30.4560459 0.0169294144,19.8837688 C0.0169294144,9.31281382 8.59009069,0.742341035 19.1643617,0.742341035 C22.0079742,0.742341035 24.704777,1.36112864 27.1304447,2.47177306 L19.1643617,19.8837688 L37.6544565,24.8790243" id="Fill-25" fill="#AC5818"></path>
                        <path d="M38.2916902,21.1686786 C37.630385,31.142001 29.3296815,39.0262542 19.1865815,39.0262542 C8.61098794,39.0262542 0.0378266604,30.4557814 0.0378266604,19.8835043 C0.0378266604,9.31254938 8.61098794,0.742076596 19.1865815,0.742076596 L19.1654197,19.8835043 L38.2916902,21.1686786 Z" id="Fill-27" fill="#D27E3E"></path>
                    </g>
                    <path d="M36.5868725,29.9003473 L36.6024378,29.9095254 C32.3171798,37.1829242 23.5456269,40.9855591 15.0161118,38.6360173 C5.62711402,36.0483988 -0.192253211,26.903557 1.14205097,17.5131683 C2.39324384,8.23400288 10.2961848,1.06283921 19.8950936,0.95390339 C19.976312,0.952889432 20.0576523,0.952380952 20.1391113,0.952380952 C22.9745523,0.95587257 25.6636256,1.57432619 28.0829745,2.68207742 L28.0471144,2.76045916 C29.6475182,3.48721457 31.1108426,4.41825338 32.4137303,5.51236962 L20.1763301,20.0977315 L39.24422,21.3789829 C39.0386425,24.4793528 38.0948099,27.3778396 36.5868725,29.9003473 Z" id="Combined-Shape" stroke="#874C10" stroke-width="2"></path>
                </g>
            </g>
        </g>
    </g>
</svg>