<?xml version="1.0" encoding="UTF-8"?>
<svg width="120px" height="120px" viewBox="0 0 120 120" version="1.1" xmlns="http://www.w3.org/2000/svg" xmlns:xlink="http://www.w3.org/1999/xlink">
    <!-- Generator: Sketch 41.2 (35397) - http://www.bohemiancoding.com/sketch -->
    <title>motiond</title>
    <desc>Created with Sketch.</desc>
    <defs></defs>
    <g id="Page-1" stroke="none" stroke-width="1" fill="none" fill-rule="evenodd">
        <g id="iPad-Pro-Portrait-Copy" transform="translate(-658.000000, -625.000000)">
            <g id="Group-10" transform="translate(662.000000, 634.000000)">
                <path d="M90.3823848,84.467892 L105.648439,93.4103533" id="Stroke-3" stroke="#824C23" stroke-width="2" stroke-linecap="round"></path>
                <path d="M79.2014899,85.7195367 L92.4153566,93.4596755" id="Stroke-4" stroke="#824C23" stroke-width="2" stroke-linecap="round"></path>
                <path d="M78.3562949,93.1514492 L91.1182899,100.626238" id="Stroke-5" stroke="#824C23" stroke-width="2" stroke-linecap="round"></path>
                <path d="M96.2010235,10.4943227 L110.653577,10.4943227 C112.06774,10.4943227 113.214683,9.34896801 113.214683,7.93676372 C113.214683,6.52455943 112.06774,5.37920478 110.653577,5.37920478 L78.7643519,5.37920478 C77.3501889,5.37920478 76.2032457,6.52455943 76.2032457,7.93676372 C76.2032457,9.33576037 77.3288357,10.4728755 78.7247449,10.4940228 L77.0732111,10.4940228 L78.7247449,10.4940228 C78.7379234,10.4942225 78.7511259,10.4943227 78.7643519,10.4943227 L80.1065774,10.4943227 C81.2206941,10.5132078 82.1188605,11.4218142 82.1188605,12.5388706 C82.1188605,13.6692337 81.2016062,14.5837185 80.0711766,14.5837185 L96.2364704,14.5837185 C95.1045395,14.5837185 94.1887865,13.6692337 94.1887865,12.5388706 C94.1887865,11.4218142 95.0854829,10.5132078 96.2010235,10.4943227 Z M70.9400674,14.5843181 L104.417598,14.5843181 C105.833263,14.5843181 106.978704,15.7296728 106.978704,17.1418771 C106.978704,18.5540814 105.833263,19.699436 104.417598,19.699436 L70.9400674,19.699436 C69.5259045,19.699436 68.3789613,18.5540814 68.3789613,17.1418771 C68.3789613,15.7296728 69.5259045,14.5843181 70.9400674,14.5843181 Z" id="Combined-Shape" fill="#F4D747"></path>
                <path d="M22.1084648,40.3350088 L7.52251485,40.3350088 C5.26766053,40.3350088 3.44065806,42.1594808 3.44065806,44.4112121 C3.44065806,46.6629433 5.26766053,48.4874153 7.52251485,48.4874153 L60.8838976,48.4874153 C63.1387519,48.4874153 64.9657544,46.6629433 64.9657544,44.4112121 C64.9657544,42.1594808 63.1387519,40.3350088 60.8838976,40.3350088 L47.8108918,40.3350088 C46.0224869,40.31805 44.5788388,38.8644406 44.5788388,37.074496 C44.5788388,35.2755096 46.03954,33.8153323 47.8425228,33.8153323 L17.2984042,33.8153323 L22.0768339,33.8153323 C23.8798166,33.8153323 25.3405178,35.2755096 25.3405178,37.074496 C25.3405178,38.8644406 23.8968697,40.31805 22.1084648,40.3350088 Z M19.9938709,25.6627759 L70.8226709,25.6627759 C73.0775252,25.6627759 74.9060289,27.4872479 74.9060289,29.7389792 C74.9060289,31.9907104 73.0775252,33.8151824 70.8226709,33.8151824 L19.9938709,33.8151824 C17.7390166,33.8151824 15.9120141,31.9907104 15.9120141,29.7389792 C15.9120141,27.4872479 17.7390166,25.6627759 19.9938709,25.6627759 Z" id="Combined-Shape" fill="#F4D747"></path>
                <path d="M93.8049208,43.7505343 L80.7802097,34.9939682 C79.4005751,34.0674903 79.0357751,32.1980436 79.9635381,30.8203199 L88.7322492,17.8136486 C89.6615134,16.4359248 91.5320516,16.0701309 92.9131874,16.9981081 L105.936397,25.7546742 C107.316032,26.6826513 107.682333,28.5505988 106.753069,29.9283225 L97.985859,42.9349938 C97.0565949,44.3127176 95.1845553,44.6785114 93.8049208,43.7505343 Z" id="Stroke-24" stroke="#824C23" stroke-width="2"></path>
                <path d="M78.0317148,18.0497719 L91.6588682,16.3399023" id="Stroke-26" stroke="#824C23" stroke-width="2" stroke-linecap="round"></path>
                <path d="M97.8617727,31.4659513 L107.166059,27.5127336" id="Stroke-28" stroke="#824C23" stroke-width="2" stroke-linecap="round"></path>
                <path d="M84.3521261,51.773259 L96.7617524,43.9679118" id="Stroke-30" stroke="#824C23" stroke-width="2" stroke-linecap="round"></path>
                <path d="M75.9332945,81.0596332 C70.1402043,92.4273938 56.2147752,96.9546097 44.831248,91.1695431 C33.4459738,85.3844764 28.9142258,71.4783347 34.7073161,60.1088296 C40.5004064,48.741069 54.4258354,44.2155977 65.8093626,50.0006643 C77.1946369,55.7857309 81.7263848,69.6918727 75.9332945,81.0596332" id="Fill-32" fill="#824C23"></path>
                <path d="M61.1051616,71.1105013 C58.1893993,76.8327626 51.180389,79.1111996 45.4501911,76.1994758 C39.7199933,73.2877519 37.4383962,66.2867048 40.3541585,60.5661881 C43.2699207,54.8439268 50.278931,52.5654898 56.0091289,55.4772136 C61.7393268,58.3889374 64.0209238,65.38824 61.1051616,71.1105013" id="Fill-34" fill="#FEFEFE"></path>
                <path d="M47.0736566,76.8772167 C46.5243553,76.6950397 45.9817705,76.4695908 45.4501911,76.1994758 C39.7199933,73.2877519 37.4383962,66.2867048 40.3541585,60.5661881 C42.8887897,55.5919067 48.5165169,53.2199789 53.708525,54.5975436 C50.0294931,55.4967437 46.7497036,57.9310909 44.8971829,61.5668459 C42.2515544,66.7591535 43.301524,72.8593426 47.0736566,76.8772167 Z" id="Combined-Shape" fill="#C7733F"></path>
                <g id="Group-9">
                    <path d="M49.3771787,3.08895827 L40.3208739,36.585302 C39.9509268,37.954096 38.2245071,38.4119902 37.2133184,37.4098374 L12.4729012,12.8888713 C11.4617125,11.8867185 11.9237353,10.1773556 13.3048711,9.81071435 L47.1032372,0.83533678 C48.484373,0.468695539 49.7471258,1.72016431 49.3771787,3.08895827 Z" id="Stroke-18" stroke="#824C23" stroke-width="2" stroke-linecap="round" fill-opacity="0" fill="#FFFFFF"></path>
                    <path d="M41.5482402,10.7685148 L33.9389006,38.9112812 C33.5149032,40.4800598 31.5362488,41.0048535 30.379207,39.8562835 L9.59202883,19.2548597 C8.43310266,18.1062897 8.96262828,16.1453165 10.5455518,15.725108 L38.9420697,8.18563303 C40.5249932,7.76542449 41.9722376,9.1997363 41.5482402,10.7685148" id="Fill-20" fill="#C7733F"></path>
                    <path d="M16.2508009,43.310806 L7.54800112,53.1351617" id="Stroke-38" stroke="#824C23" stroke-width="2" stroke-linecap="round"></path>
                    <path d="M15.1352049,33.484006 L7.60308213,41.9884533" id="Stroke-40" stroke="#824C23" stroke-width="2" stroke-linecap="round"></path>
                    <path d="M8.00657109,30.2663625 L0.730944984,38.4791263" id="Stroke-42" stroke="#824C23" stroke-width="2" stroke-linecap="round"></path>
                </g>
                <path d="M64.2572435,90.0759155 L21.1087592,90.0759155 C19.2864394,90.0759155 17.8083355,88.5998589 17.8083355,86.780063 C17.8083355,84.9590778 19.2864394,83.4842105 21.1087592,83.4842105 L64.2572435,83.4842105 C66.0807544,83.4842105 67.5576672,84.9590778 67.5576672,86.780063 C67.5576672,88.5998589 66.0807544,90.0759155 64.2572435,90.0759155 Z M54.1729066,101.940033 L13.0718523,101.940033 C11.2495324,101.940033 9.77142857,100.463976 9.77142857,98.6441805 C9.77142857,96.8231952 11.2495324,95.348328 13.0718523,95.348328 L54.1729066,95.348328 C55.9964175,95.348328 57.4733304,96.8231952 57.4733304,98.6441805 C57.4733304,100.463976 55.9964175,101.940033 54.1729066,101.940033 Z M52.4886305,95.3477333 C51.0307746,95.3477333 49.8492444,94.1678395 49.8492444,92.7120028 C49.8492444,91.2561661 51.0307746,90.0762723 52.4886305,90.0762723 L31.6546313,90.0762723 C33.1124872,90.0762723 34.2940175,91.2561661 34.2940175,92.7120028 C34.2940175,94.1678395 33.1124872,95.3477333 31.6546313,95.3477333 L56.352425,95.3477333 L52.4886305,95.3477333 Z" id="Combined-Shape" fill="#F4D747"></path>
                <path d="M82.6469949,52.0951325 L64.8918936,40.1588581 C63.5077553,39.2278826 63.1414541,37.3539385 64.0722195,35.9717173 L76.0250492,18.2412076 C76.9573158,16.8574873 78.8353603,16.4916934 80.2194986,17.4226688 L97.9745998,29.3589433 C99.3587381,30.2899188 99.7250393,32.1638629 98.7927726,33.5460841 L86.839943,51.2765937 C85.9091776,52.6588149 84.0311331,53.026108 82.6469949,52.0951325" id="Fill-22" fill="#824C23"></path>
                <path d="M75.5796515,43.4249895 L67.8920195,38.2568024 C67.2927132,37.8537071 67.1341115,37.0423238 67.5371158,36.4438475 L72.712471,28.7668632 C73.1161253,28.1677378 73.9292839,28.0093558 74.5285903,28.412451 L82.2162223,33.5806381 C82.8155287,33.9837333 82.9741304,34.7951166 82.5704761,35.3935929 L77.3951209,43.0705772 C76.9921166,43.6690536 76.1789579,43.8280847 75.5796515,43.4249895" id="Fill-22-Copy" fill="#C7733F"></path>
            </g>
        </g>
    </g>
</svg>