<?xml version="1.0" encoding="UTF-8"?>
<svg width="80px" height="80px" viewBox="0 0 80 80" version="1.1" xmlns="http://www.w3.org/2000/svg" xmlns:xlink="http://www.w3.org/1999/xlink">
    <!-- Generator: Sketch 41.2 (35397) - http://www.bohemiancoding.com/sketch -->
    <title>principle_logo</title>
    <desc>Created with Sketch.</desc>
    <defs>
        <rect id="path-1" x="273" y="92" width="74" height="74" rx="37"></rect>
        <mask id="mask-2" maskContentUnits="userSpaceOnUse" maskUnits="objectBoundingBox" x="0" y="0" width="74" height="74" fill="white">
            <use xlink:href="#path-1"></use>
        </mask>
        <linearGradient x1="54.8671866%" y1="-8.18611134%" x2="42.7823946%" y2="100%" id="linearGradient-3">
            <stop stop-color="#A94FDA" offset="0%"></stop>
            <stop stop-color="#7010B4" offset="100%"></stop>
        </linearGradient>
    </defs>
    <g id="Page-1" stroke="none" stroke-width="1" fill="none" fill-rule="evenodd">
        <g id="iPad-Pro-Portrait" transform="translate(-270.000000, -88.000000)">
            <rect id="Rectangle-Copy" fill="#D4D4D4" opacity="0" x="270" y="89" width="80" height="80"></rect>
            <use id="Rectangle-2" stroke="#874C10" mask="url(#mask-2)" stroke-width="10" fill="#FFFFFF" xlink:href="#path-1"></use>
            <path d="M303.580714,123.566985 L303.580714,145.926549 C303.580714,148.568376 301.430615,150.709999 298.790357,150.709999 C297.467388,150.709999 296.269678,150.17201 295.402771,149.304974 C296.463305,148.779347 297.193571,147.676283 297.193571,146.400602 C297.193571,144.615591 295.763761,143.168553 294,143.168553 L294,122.698915 C294,113.476359 301.387355,106 310.500119,106 C319.612883,106 327.000237,113.476359 327.000237,122.698915 C327.000237,131.921472 319.612883,139.397831 310.500119,139.397831 C307.854478,139.397831 305.709762,137.227275 305.709762,134.549758 C305.709762,131.872242 307.854478,129.701686 310.500119,129.701686 C314.3216,129.701686 317.419523,126.566439 317.419523,122.698915 C317.419523,118.831392 314.3216,115.696144 310.500119,115.696144 C306.678637,115.696144 303.580714,118.831392 303.580714,122.698915 C303.580714,122.804485 303.582989,122.909614 303.587518,123.014271 C303.595587,123.200704 303.593142,123.385138 303.580714,123.566985 Z M310.500119,137.781807 C312.263879,137.781807 313.69369,136.334769 313.69369,134.549758 C313.69369,132.764748 312.263879,131.31771 310.500119,131.31771 C308.736358,131.31771 307.306547,132.764748 307.306547,134.549758 C307.306547,136.334769 308.736358,137.781807 310.500119,137.781807 Z" id="Combined-Shape" fill="url(#linearGradient-3)"></path>
        </g>
    </g>
</svg>