<?xml version="1.0" encoding="UTF-8"?>
<svg width="120px" height="120px" viewBox="0 0 120 120" version="1.1" xmlns="http://www.w3.org/2000/svg" xmlns:xlink="http://www.w3.org/1999/xlink">
    <!-- Generator: Sketch 41.2 (35397) - http://www.bohemiancoding.com/sketch -->
    <title>survey</title>
    <desc>Created with Sketch.</desc>
    <defs></defs>
    <g id="Page-1" stroke="none" stroke-width="1" fill="none" fill-rule="evenodd">
        <g id="iPad-Pro-Portrait-Copy" transform="translate(-365.000000, -1013.000000)">
            <g id="Group-22" transform="translate(376.000000, 1022.000000)">
                <polygon id="Stroke-1" stroke="#824C23" stroke-width="4" stroke-linecap="round" stroke-linejoin="round" fill="#FFFFFF" points="0 92.8531758 72.8129743 92.8531758 72.8129743 0 0 0"></polygon>
                <polygon id="Fill-3" fill="#F4D747" points="7 17.1006545 65.454796 17.1006545 65.454796 9 7 9"></polygon>
                <polygon id="Fill-4" fill="#F4D747" points="7 30.1006545 65.454796 30.1006545 65.454796 22 7 22"></polygon>
                <polygon id="Fill-5" fill="#F4D747" points="7 44.1006545 65.454796 44.1006545 65.454796 36 7 36"></polygon>
                <polygon id="Fill-6" fill="#F4D747" points="7 57.1006545 65.454796 57.1006545 65.454796 49 7 49"></polygon>
                <polygon id="Fill-7" fill="#F4D747" points="7 71.1006545 65.454796 71.1006545 65.454796 63 7 63"></polygon>
                <polygon id="Fill-8" fill="#F4D747" points="7 85.1006545 65.454796 85.1006545 65.454796 77 7 77"></polygon>
                <path d="M23.3299597,72.4245939 C23.3299597,70.1181576 24.0781419,68.3093576 25.5745062,66.9996364 C27.069429,65.6899152 29.0328666,65.0350545 31.4633775,65.0350545 C33.9558765,65.0350545 35.9495874,65.6899152 37.4459518,66.9996364 C38.9423161,68.3093576 39.6890567,70.1181576 39.6890567,72.4245939 C39.6890567,74.6084242 38.9423161,76.3854909 37.4459518,77.7557939 C35.9495874,79.126097 33.9558765,79.8141333 31.4633775,79.8141333 C29.0328666,79.8141333 27.069429,79.126097 25.5745062,77.7557939 C24.0781419,76.3854909 23.3299597,74.6084242 23.3299597,72.4245939 Z M31.3783241,58.9552364 C27.6013736,58.9552364 24.7412706,55.5366909 25.3856587,51.8123515 C25.485128,51.2353818 25.6105458,50.6858182 25.7619122,50.1636606 C26.4466646,47.7952 27.3966686,45.7988848 28.6119241,44.1761576 C29.8271795,42.5563152 31.1822686,41.2004364 32.678633,40.1085212 C34.1749973,39.0180485 35.590633,37.9722909 36.9313062,36.9741333 C38.2719795,35.9788606 39.3920904,34.933103 40.2974052,33.8411879 C41.1998369,32.7521576 41.6524944,31.4251273 41.6524944,29.8658667 C41.6524944,27.6834788 41.012431,25.984303 39.7351874,24.7683394 C38.4579439,23.5523758 36.1369934,22.9436727 32.7723359,22.9436727 C31.71133,22.9436727 30.5436468,23.0706061 29.2664033,23.318703 C27.9891597,23.5682424 26.726332,23.9115394 25.4808033,24.3471515 C24.233833,24.7842061 23.0344349,25.2832848 21.8811676,25.8443879 C21.8696349,25.8501576 21.8566607,25.8559273 21.845128,25.861697 C20.1584746,26.6853212 18.1287241,26.0621939 17.2637736,24.3961939 L15.3839478,20.7742667 C14.5074646,19.0851879 15.1850092,17.0239636 16.8731043,16.1469697 C18.6678765,15.2137212 20.6168983,14.3929818 22.7230528,13.6847515 C26.0559953,12.561103 30.1227043,12 34.9217379,12 C41.2156944,12 46.1862765,13.4366545 49.8320429,16.3027515 C53.4778092,19.1717333 55.3014132,23.0388727 55.3014132,27.9012848 C55.3014132,31.2693455 54.8473142,33.9984121 53.9463241,36.0856 C53.0410092,38.1756727 51.8891835,39.9210061 50.4865221,41.3244848 C49.0838607,42.7265212 47.5874963,43.9424848 45.9988706,44.9723758 C44.4102448,46.0008242 42.9138805,47.0927394 41.5126607,48.2452364 C40.1114409,49.4006182 38.956732,50.8026545 38.0543003,52.4542303 C37.7126448,53.0788 37.4358607,53.7769333 37.2225062,54.5486303 C36.5031557,57.162303 34.0985934,58.9552364 31.3884151,58.9552364 L31.3783241,58.9552364 Z" id="Fill-9" fill="#FEFEFE"></path>
                <path d="M22.9489392,73.2793388 C22.9489392,70.8985586 23.7212377,69.0314551 25.2658346,67.6795174 C26.8089436,66.3275797 28.8356691,65.6516108 31.3445231,65.6516108 C33.9173633,65.6516108 35.9753379,66.3275797 37.5199349,67.6795174 C39.0645319,69.0314551 39.8353423,70.8985586 39.8353423,73.2793388 C39.8353423,75.5335609 39.0645319,77.3679081 37.5199349,78.7823804 C35.9753379,80.1968527 33.9173633,80.9070667 31.3445231,80.9070667 C28.8356691,80.9070667 26.8089436,80.1968527 25.2658346,78.7823804 C23.7212377,77.3679081 22.9489392,75.5335609 22.9489392,73.2793388 Z M31.2567281,59.3758207 C27.3580344,59.3758207 24.4057411,55.8470845 25.0708999,52.0026978 C25.1735755,51.4071305 25.3030359,50.8398526 25.4592813,50.3008643 C26.1661055,47.8560606 27.1467311,45.7953978 28.4011582,44.1203648 C29.6555852,42.4483097 31.0543531,41.0487266 32.5989501,39.9216155 C34.1435471,38.7959934 35.6048132,37.7165277 36.9887007,36.6861963 C38.3725881,35.6588427 39.5288038,34.579377 40.4632998,33.452266 C41.3948198,32.3281327 41.8620678,30.958328 41.8620678,29.3488074 C41.8620678,27.0960742 41.2013731,25.3421286 39.8829599,24.0869705 C38.5645467,22.8318125 36.1687845,22.203489 32.6956734,22.203489 C31.6004679,22.203489 30.3951465,22.3345138 29.0767333,22.5906077 C27.7583201,22.8481906 26.4547874,23.2025531 25.1691113,23.6522064 C23.8819472,24.1033486 22.6438887,24.6185143 21.4534479,25.1977035 C21.4415435,25.2036592 21.428151,25.2096148 21.4162466,25.2155705 C19.6752269,26.0657428 17.5800511,25.4225301 16.6872204,23.7028296 L14.7468019,19.964156 C13.8420669,18.2206328 14.5414508,16.0929687 16.2839586,15.1877065 C18.1365821,14.2243764 20.1484271,13.377182 22.3224697,12.6461231 C25.7628437,11.4862558 29.9606356,10.9070667 34.9143575,10.9070667 C41.4111883,10.9070667 46.5419883,12.3900292 50.3052693,15.3485096 C54.0685504,18.3099679 55.950935,22.3017576 55.950935,27.3209008 C55.950935,30.7975248 55.4821989,33.6145581 54.552167,35.7690227 C53.6176709,37.9264651 52.4287182,39.7280562 50.9808445,41.1767736 C49.5329709,42.624002 47.9883739,43.8791601 46.3485417,44.9422477 C44.7087094,46.0038463 43.1641124,47.1309574 41.7177268,48.3206031 C40.2713412,49.5132265 39.0794124,50.960455 38.1478924,52.6652664 C37.7952243,53.3099679 37.5095185,54.0306043 37.289287,54.8271756 C36.5467495,57.5250953 34.0646804,59.3758207 31.2671444,59.3758207 L31.2567281,59.3758207 Z" id="Stroke-11" stroke="#824C23" stroke-width="4" fill="#FFFFFF"></path>
                <polygon id="Fill-13" fill="#FEFEFE" points="40 70.6016606 100.233711 70.6016606 100.233711 56 40 56"></polygon>
                <path d="M40,70.6016606 L92.9381304,70.6016606 C96.9673682,70.6016606 100.233711,67.324763 100.233711,63.3008303 L100.233711,63.3008303 C100.233711,59.2686931 96.9739282,56 92.9381304,56 L40,56 L40,70.6016606 Z" id="Stroke-15" stroke="#824C23" stroke-width="4" stroke-linecap="round" stroke-linejoin="round"></path>
                <polygon id="Fill-16" fill="#FEFEFE" points="43 85.6016606 103.233711 85.6016606 103.233711 71 43 71"></polygon>
                <path d="M43,85.0220424 L95.9381304,85.0220424 C99.9673682,85.0220424 103.233711,81.7451448 103.233711,77.7212121 L103.233711,77.7212121 C103.233711,73.6890749 99.9739282,70.4203818 95.9381304,70.4203818 L43,70.4203818 L43,85.0220424 Z" id="Stroke-17" stroke="#824C23" stroke-width="4" stroke-linecap="round" stroke-linejoin="round"></path>
                <polygon id="Fill-18" fill="#FEFEFE" points="37 101.601661 97.2337109 101.601661 97.2337109 87 37 87"></polygon>
                <path d="M37,101.601661 L89.9381304,101.601661 C93.9673682,101.601661 97.2337109,98.324763 97.2337109,94.3008303 L97.2337109,94.3008303 C97.2337109,90.2686931 93.9739282,87 89.9381304,87 L37,87 L37,101.601661 Z" id="Stroke-19" stroke="#824C23" stroke-width="4" stroke-linecap="round" stroke-linejoin="round"></path>
                <path d="M47,65 L92.409901,65" id="Stroke-20" stroke="#C7733F" stroke-width="2" stroke-linecap="round"></path>
                <path d="M50,80 L95.409901,80" id="Stroke-20-Copy-2" stroke="#C7733F" stroke-width="2" stroke-linecap="round"></path>
                <path d="M44,96.030303 L89.4098994,96.030303" id="Stroke-20-Copy-4" stroke="#C7733F" stroke-width="2" stroke-linecap="round"></path>
                <path d="M47,61 L92.409901,61" id="Stroke-20-Copy" stroke="#C7733F" stroke-width="2" stroke-linecap="round"></path>
                <path d="M50,76 L95.409901,76" id="Stroke-20-Copy-3" stroke="#C7733F" stroke-width="2" stroke-linecap="round"></path>
                <path d="M44,92.030303 L89.4098994,92.030303" id="Stroke-20-Copy-5" stroke="#C7733F" stroke-width="2" stroke-linecap="round"></path>
            </g>
        </g>
    </g>
</svg>