<?xml version="1.0" encoding="UTF-8"?>
<svg width="120px" height="120px" viewBox="0 0 120 120" version="1.1" xmlns="http://www.w3.org/2000/svg" xmlns:xlink="http://www.w3.org/1999/xlink">
    <!-- Generator: Sketch 41.2 (35397) - http://www.bohemiancoding.com/sketch -->
    <title>uid copy</title>
    <desc>Created with Sketch.</desc>
    <defs></defs>
    <g id="Page-1" stroke="none" stroke-width="1" fill="none" fill-rule="evenodd">
        <g id="iPad-Pro-Portrait-Copy" transform="translate(-508.000000, -475.000000)">
            <g id="Page-1-Copy" transform="translate(536.000000, 478.000000)">
                <path d="M52.7519824,113.766634 L5.15212095,104.193209 C4.09173254,103.98067 3.23901119,102.771395 3.23901119,101.492495 L3.23901119,12.4110897 C3.23901119,11.1303578 4.09173254,9.92108312 5.15212095,9.70854393 L52.7519824,0.135119031 C54.3012154,-0.176360822 55.5692708,0.838697052 55.5692708,2.40708972 L55.5692708,111.496495 C55.5692708,113.063056 54.3012154,114.078114 52.7519824,113.766634" id="Fill-4" fill="#FEFEFE"></path>
                <path d="M52.7519824,113.766634 L5.15212095,104.193209 C4.09173254,103.98067 3.23901119,102.771395 3.23901119,101.492495 L3.23901119,12.4110897 C3.23901119,11.1303578 4.09173254,9.92108312 5.15212095,9.70854393 L52.7519824,0.135119031 C54.3012154,-0.176360822 55.5692708,0.838697052 55.5692708,2.40708972 L55.5692708,111.496495 C55.5692708,113.063056 54.3012154,114.078114 52.7519824,113.766634 Z" id="Stroke-6" stroke="#844722" stroke-width="2"></path>
                <path d="M48.6076463,112.06632 L1.98914957,102.690777 C0.950814308,102.481902 0.114632811,101.298279 0.114632811,100.04503 L0.114632811,12.7976912 C0.114632811,11.5444428 0.950814308,10.3608194 1.98914957,10.1519447 L48.6076463,0.776401082 C50.1256374,0.470417932 51.3679642,1.46532123 51.3679642,3.00073368 L51.3679642,109.841988 C51.3679642,111.3774 50.1256374,112.372303 48.6076463,112.06632" id="Fill-8" fill="#FEFEFE"></path>
                <path d="M48.6076463,112.06632 L1.98914957,102.690777 C0.950814308,102.481902 0.114632811,101.298279 0.114632811,100.04503 L0.114632811,12.7976912 C0.114632811,11.5444428 0.950814308,10.3608194 1.98914957,10.1519447 L48.6076463,0.776401082 C50.1256374,0.470417932 51.3679642,1.46532123 51.3679642,3.00073368 L51.3679642,109.841988 C51.3679642,111.3774 50.1256374,112.372303 48.6076463,112.06632 Z" id="Stroke-10" stroke="#844722" stroke-width="2" fill="#FDFDFD"></path>
                <path d="M45.8204972,92.7783885 L3.95261399,87.2212215 C3.77618889,87.1974024 3.63284349,87.00685 3.63284349,86.7943108 L3.63284349,21.7591498 C3.63284349,21.5466106 3.77618889,21.354226 3.95261399,21.3267424 L45.8204972,14.9945403 C46.0667573,14.9578956 46.2670733,15.1301256 46.2670733,15.3811417 L46.2670733,92.3844581 C46.2670733,92.633642 46.0667573,92.8113687 45.8204972,92.7783885" id="Fill-12" fill="#844722" opacity="0.400000006"></path>
                <path d="M31.6820464,11.7150238 L18.7129633,13.9466854 C18.3472487,14.0108136 18.0513691,13.7268173 18.0513691,13.3145645 L18.0513691,12.2885132 C18.0513691,11.8762605 18.3472487,11.4878268 18.7129633,11.4218663 L31.6820464,9.05645169 C32.0881917,8.98316231 32.4189888,9.27631982 32.4189888,9.71239162 L32.4189888,10.7970744 C32.4189888,11.2349784 32.0881917,11.6453989 31.6820464,11.7150238" id="Fill-14" fill="#844722"></path>
                <path d="M16.7952591,13.0749082 C16.7952591,13.7949764 16.2825237,14.4655742 15.6540092,14.573676 C15.0291703,14.6817778 14.5256236,14.190739 14.5256236,13.4761676 C14.5256236,12.7634284 15.0291703,12.0928306 15.6540092,11.9792321 C16.2825237,11.8638013 16.7952591,12.3548401 16.7952591,13.0749082" id="Fill-16" fill="#844722"></path>
                <path d="M20.6034686,97.673386 C20.6034686,95.5260072 22.0148694,93.9704402 23.8838729,93.9154732 C23.6780436,93.8476805 23.4703766,93.7835523 23.2553585,93.7524043 C21.101502,93.4317633 19.3813572,95.0990966 19.3813572,97.470008 C19.3813572,99.8427516 21.101502,102.07991 23.2553585,102.47384 C23.4703766,102.514149 23.6780436,102.517814 23.8838729,102.519646 C22.0148694,101.843552 20.6034686,99.8207647 20.6034686,97.673386" id="Fill-18" fill="#844722"></path>
                <path d="M46.2668895,23.2672619 L3.63265971,28.4195051 L3.63265971,21.7556685 C3.63265971,21.5449616 3.77416735,21.3544092 3.9487547,21.3269257 L45.8258267,14.9928912 C46.0684112,14.9562466 46.2668895,15.1284766 46.2668895,15.3758282 L46.2668895,23.2672619 Z" id="Fill-20" fill="#844722"></path>
                <polygon id="Fill-22" fill="#FEFEFE" points="44.0165505 20.66952 5.26367307 25.7612994 5.26367307 23.0514247 44.0165505 17.5107478"></polygon>
                <path d="M43.5942329,49.4031699 L24.5697255,49.8942088 C24.3675717,49.8997055 24.2058487,49.723811 24.2058487,49.5021106 L24.2058487,28.6256315 C24.2058487,28.4039311 24.3675717,28.2060498 24.5697255,28.184063 L43.5942329,26.0586711 C43.8276286,26.0311876 44.016918,26.2052498 44.016918,26.4434403 L44.016918,48.9597692 C44.016918,49.1979597 43.8276286,49.3976732 43.5942329,49.4031699" id="Fill-24" fill="#C7733F"></path>
                <path d="M24.2051136,39.0644207 L24.2051136,28.7067995 C24.2051136,28.4411255 24.4789401,28.1937739 24.818926,28.1552969 L43.3049692,26.0903687 C43.6982502,26.0463951 44.0161829,26.2424442 44.0161829,26.530105 L44.0161829,37.7012383" id="Fill-26" fill="#FEFEFE"></path>
                <polygon id="Fill-28" fill="#C7733F" points="42.8986402 27.8434506 33.6142689 28.8218638 33.6142689 32.7959803 42.8986402 31.9568169"></polygon>
                <polygon id="Fill-30" fill="#844722" points="32.7282841 36.8448519 25.5113945 37.3871933 25.5113945 29.6771509 32.7282841 28.9167736"></polygon>
                <path d="M21.7544586,73.5516533 L5.5748061,72.4413192 C5.40205651,72.4303258 5.26238664,72.2544313 5.26238664,72.049221 L5.26238664,52.7411346 C5.26238664,52.5359244 5.40205651,52.3673588 5.5748061,52.3636943 L21.7544586,52.0833625 C21.9510991,52.079698 22.1109844,52.2555925 22.1109844,52.4754606 L22.1109844,73.1778775 C22.1109844,73.3977456 21.9510991,73.5644789 21.7544586,73.5516533" id="Fill-32" fill="#C7733F"></path>
                <path d="M5.26275419,62.3951778 L5.26275419,52.814424 C5.26275419,52.5689046 5.49798767,52.3655266 5.78835399,52.3600299 L21.5104039,52.0870269 C21.841201,52.0815302 22.1113519,52.290405 22.1113519,52.5542467 L22.1113519,62.8257529" id="Fill-34" fill="#FEFEFE"></path>
                <polygon id="Fill-36" fill="#C7733F" points="21.1661912 53.6642143 13.2895452 53.7521616 13.2895452 57.4147982 21.1661912 57.4477784"></polygon>
                <polygon id="Fill-38" fill="#844722" points="12.5356955 61.0745033 6.37919432 60.955408 6.37919432 53.8280161 12.5356955 53.7602234"></polygon>
                <path d="M43.5942329,75.0491385 L24.5697255,73.7445876 C24.3675717,73.7299297 24.2058487,73.5393773 24.2058487,73.3176769 L24.2058487,52.4411979 C24.2058487,52.2194975 24.3675717,52.0381063 24.5697255,52.0344418 L43.5942329,51.7046396 C43.8276286,51.6991429 44.016918,51.8896953 44.016918,52.129718 L44.016918,74.6442147 C44.016918,74.8842374 43.8276286,75.0656286 43.5942329,75.0491385" id="Fill-40" fill="#C7733F"></path>
                <path d="M24.2051136,62.8801703 L24.2051136,52.5225491 C24.2051136,52.2568751 24.4789401,52.0351747 24.818926,52.029678 L43.3049692,51.709037 C43.6982502,51.701708 44.0161829,51.9289051 44.0161829,52.2147337 L44.0161829,63.3876992" id="Fill-42" fill="#FEFEFE"></path>
                <polygon id="Fill-44" fill="#C7733F" points="42.8986402 53.4238252 33.6142689 53.5264303 33.6142689 57.4987145 42.8986402 57.5371915"></polygon>
                <polygon id="Fill-46" fill="#844722" points="32.7282841 61.4649524 25.5113945 61.3257026 25.5113945 53.6156601 32.7282841 53.536874"></polygon>
                <path d="M21.7544586,89.5089494 L5.5748061,87.3652351 C5.40205651,87.3432483 5.26238664,87.1581926 5.26238664,86.9529823 L5.26238664,75.4483824 C5.26238664,75.2431721 5.40205651,75.0874322 5.5748061,75.1020901 L21.7544586,76.3956476 C21.9510991,76.4121377 22.1109844,76.60269 22.1109844,76.8225582 L22.1109844,89.1571604 C22.1109844,89.3788607 21.9510991,89.5346007 21.7544586,89.5089494" id="Fill-48" fill="#C7733F"></path>
                <path d="M5.26275419,85.102792 L5.26275419,75.5220382 C5.26275419,75.2765188 5.49798767,75.0951276 5.78835399,75.1189466 L21.5104039,76.3758594 C21.841201,76.4033429 22.1113519,76.6378689 22.1113519,76.9017107 L22.1113519,87.1732169" id="Fill-50" fill="#FEFEFE"></path>
                <polygon id="Fill-52" fill="#C7733F" points="21.1661912 77.9195169 13.2895452 77.239758 13.2895452 80.9042268 21.1661912 81.703081"></polygon>
                <polygon id="Fill-54" fill="#844722" points="12.5356955 84.4900928 6.37919432 83.7718569 6.37919432 76.644465 12.5356955 77.175813"></polygon>
                <path d="M43.5942329,92.5042862 L24.5697255,89.9776349 C24.3675717,89.9501514 24.2058487,89.7486056 24.2058487,89.5269053 L24.2058487,76.9925895 C24.2058487,76.7708892 24.3675717,76.6041558 24.5697255,76.6206459 L43.5942329,78.1414005 C43.8276286,78.1597229 44.016918,78.3685976 44.016918,78.6086203 L44.016918,92.1268459 C44.016918,92.3668686 43.8276286,92.5354342 43.5942329,92.5042862" id="Fill-56" fill="#C7733F"></path>
                <path d="M24.2051136,87.4311955 L24.2051136,77.0735743 C24.2051136,76.8079003 24.4789401,76.6136835 24.818926,76.641167 L43.3049692,78.1179479 C43.6982502,78.1509281 44.0161829,78.407441 44.0161829,78.6951018 L44.0161829,89.8662351" id="Fill-58" fill="#FEFEFE"></path>
                <polygon id="Fill-60" fill="#C7733F" points="42.8986402 79.794076 33.6142689 78.9933895 33.6142689 82.9656738 42.8986402 83.9074423"></polygon>
                <polygon id="Fill-62" fill="#844722" points="32.7282841 86.8456134 25.5113945 86.0046178 25.5113945 78.2945753 32.7282841 78.917535"></polygon>
                <path d="M27.4160506,98.8035082 C27.4160506,101.414442 25.4900765,103.17522 23.1542816,102.744644 C20.8607552,102.321398 19.0321825,99.9376613 19.0321825,97.4128423 C19.0321825,94.8880232 20.8607552,93.1107558 23.1542816,93.4497192 C25.4900765,93.792347 27.4160506,96.1925741 27.4160506,98.8035082 Z" id="Stroke-64" stroke="#844722"></path>
                <path d="M27.809523,58.309434 L2.45208934,57.691971 C2.20215377,57.6846421 2,57.4189681 2,57.0983271 L2,26.8279821 C2,26.5055088 2.20215377,26.2123513 2.45208934,26.1702099 L27.809523,22.0073733 C28.1421578,21.9524063 28.4141465,22.2107513 28.4141465,22.5826949 L28.4141465,57.6498297 C28.4141465,58.0217732 28.1421578,58.316763 27.809523,58.309434" id="Fill-74" fill="#844722" opacity="0.547497736"></path>
                <path d="M25.7460767,56.4715639 L1.48394893,55.8797522 C1.24503993,55.8742555 1.05023721,55.6195749 1.05023721,55.3117595 L1.05023721,26.3496299 C1.05023721,26.0418145 1.24503993,25.7614827 1.48394893,25.7211735 L25.7460767,21.7378958 C26.0640094,21.684761 26.3231338,21.9321127 26.3231338,22.2875662 L26.3231338,55.839443 C26.3231338,56.1967288 26.0640094,56.4788929 25.7460767,56.4715639" id="Fill-76" fill="#C7733F"></path>
                <path d="M1.05060476,40.8310612 L1.05060476,26.4608465 C1.05060476,26.0907352 1.37772631,25.7389462 1.78203385,25.6729857 L25.3513255,21.8014744 C25.8879519,21.7153594 26.3235013,21.9883623 26.3235013,22.4152729 L26.3235013,39.0647872" id="Fill-78" fill="#FEFEFE"></path>
                <polygon id="Fill-80" fill="#C8733F" points="24.7985268 24.427616 12.6031413 26.2616827 12.6031413 31.9599317 24.7985268 30.5326211"></polygon>
                <polygon id="Fill-82" fill="#844722" points="11.4830256 37.7662826 2.60847521 38.5083376 2.60847521 27.7641149 11.4830256 26.4302482"></polygon>
                <path d="M15.3039156,50.413464 C15.3039156,52.2072215 14.083642,53.6510222 12.6024062,53.6363644 C11.1468991,53.6217065 9.98359601,52.2017248 9.98359601,50.4611021 C9.98359601,48.7223116 11.1468991,47.2803431 12.6024062,47.2382017 C14.083642,47.1978926 15.3039156,48.6197065 15.3039156,50.413464" id="Fill-84" fill="#EEF3F0"></path>
                <path d="M23.708918,50.3376095 C23.708918,52.2193143 22.3691899,53.7309077 20.7427709,53.7162498 C19.1457561,53.6997597 17.8703496,52.2119853 17.8703496,50.3907443 C17.8703496,48.5695033 19.1457561,47.0579099 20.7427709,47.0139362 C22.3691899,46.9681304 23.708918,48.4559047 23.708918,50.3376095" id="Fill-86" fill="#EEF3F0"></path>
                <path d="M7.64045006,50.4825392 C7.64045006,52.1975107 6.52492881,53.5771832 5.17049856,53.5643576 C3.83812145,53.5515319 2.77221976,52.192014 2.77221976,50.5265129 C2.77221976,48.8610118 3.83812145,47.4813393 5.17049856,47.4446946 C6.52492881,47.4080499 7.64045006,48.7675678 7.64045006,50.4825392" id="Fill-88" fill="#EEF3F0"></path>
            </g>
        </g>
    </g>
</svg>