<?xml version="1.0" encoding="UTF-8"?>
<svg width="120px" height="120px" viewBox="0 0 120 120" version="1.1" xmlns="http://www.w3.org/2000/svg" xmlns:xlink="http://www.w3.org/1999/xlink">
    <!-- Generator: Sketch 41.2 (35397) - http://www.bohemiancoding.com/sketch -->
    <title>uid</title>
    <desc>Created with Sketch.</desc>
    <defs></defs>
    <g id="Page-1" stroke="none" stroke-width="1" fill="none" fill-rule="evenodd">
        <g id="iPad-Pro-Portrait-Copy" transform="translate(-508.000000, -475.000000)">
            <g id="Group-20" transform="translate(517.000000, 477.000000)">
                <g id="Group-12" opacity="0.779999971" transform="translate(0.000000, 26.456140)">
                    <rect id="Rectangle-17" fill="#FFDF40" x="0" y="0" width="103" height="64.1052632" rx="2"></rect>
                    <rect id="Rectangle-2" fill="#C7733F" x="4.07920792" y="5.0877193" width="47.9306931" height="4.07017544" rx="2"></rect>
                    <rect id="Rectangle-2-Copy-3" fill="#FEFEFE" x="4.07920792" y="35.6140351" width="47.9306931" height="4.07017544" rx="2"></rect>
                    <rect id="Rectangle-2-Copy-5" fill="#FEFEFE" x="4.07920792" y="48.502924" width="47.9306931" height="4.07017544" rx="2"></rect>
                    <rect id="Rectangle-2-Copy-4" fill="#FEFEFE" x="4.07920792" y="42.0584795" width="47.9306931" height="4.07017544" rx="2"></rect>
                    <rect id="Rectangle-2-Copy-6" fill="#FEFEFE" x="4.07920792" y="54.9473684" width="47.9306931" height="4.07017544" rx="2"></rect>
                    <rect id="Rectangle-2-Copy-7" fill="#FEFEFE" x="67.3069307" y="5.0877193" width="30.5940594" height="27.4736842" rx="2"></rect>
                    <rect id="Rectangle-2-Copy-8" fill="#C7733F" x="87.7029703" y="35.6140351" width="10.1980198" height="23.4035088" rx="2"></rect>
                    <rect id="Rectangle-2-Copy-9" fill="#C7733F" x="74.4455446" y="35.6140351" width="10.1980198" height="23.4035088" rx="2"></rect>
                    <rect id="Rectangle-2-Copy-2" fill="#FEFEFE" x="4.07920792" y="12.2105263" width="47.9306931" height="20.3508772" rx="2"></rect>
                </g>
                <g id="Group-6" transform="translate(22.435644, 0.000000)">
                    <g id="Page-1-Copy">
                        <path d="M53.683795,115.76254 L5.24312817,106.02116 C4.16400903,105.804892 3.29622518,104.574402 3.29622518,103.273066 L3.29622518,12.6288281 C3.29622518,11.3256273 4.16400903,10.0951372 5.24312817,9.87886926 L53.683795,0.137489541 C55.2603937,-0.179454871 56.5508481,0.853411036 56.5508481,2.44931937 L56.5508481,113.452574 C56.5508481,115.046618 55.2603937,116.079484 53.683795,115.76254" id="Fill-4" fill="#FEFEFE"></path>
                        <path d="M53.683795,115.76254 L5.24312817,106.02116 C4.16400903,105.804892 3.29622518,104.574402 3.29622518,103.273066 L3.29622518,12.6288281 C3.29622518,11.3256273 4.16400903,10.0951372 5.24312817,9.87886926 L53.683795,0.137489541 C55.2603937,-0.179454871 56.5508481,0.853411036 56.5508481,2.44931937 L56.5508481,113.452574 C56.5508481,115.046618 55.2603937,116.079484 53.683795,115.76254 Z" id="Stroke-6" stroke="#844722" stroke-width="2" fill="#FFDF40"></path>
                        <path d="M49.4662533,114.032396 L2.02428597,104.492369 C0.967609521,104.27983 0.116657689,103.075441 0.116657689,101.800206 L0.116657689,13.0222121 C0.116657689,11.7469769 0.967609521,10.5425881 2.02428597,10.3300489 L49.4662533,0.790022153 C51.0110582,0.478670878 52.2753295,1.49102862 52.2753295,3.05337813 L52.2753295,111.76904 C52.2753295,113.33139 51.0110582,114.343747 49.4662533,114.032396" id="Fill-8" fill="#FEFEFE"></path>
                        <path d="M49.4662533,114.032396 L2.02428597,104.492369 C0.967609521,104.27983 0.116657689,103.075441 0.116657689,101.800206 L0.116657689,13.0222121 C0.116657689,11.7469769 0.967609521,10.5425881 2.02428597,10.3300489 L49.4662533,0.790022153 C51.0110582,0.478670878 52.2753295,1.49102862 52.2753295,3.05337813 L52.2753295,111.76904 C52.2753295,113.33139 51.0110582,114.343747 49.4662533,114.032396 Z" id="Stroke-10" stroke="#844722" stroke-width="2" fill="#FDFDFD"></path>
                        <path d="M46.6298719,94.4060795 L4.02243309,88.7514183 C3.8428916,88.7271814 3.69701415,88.533286 3.69701415,88.317018 L3.69701415,22.1408892 C3.69701415,21.9246213 3.8428916,21.7288615 4.02243309,21.7008958 L46.6298719,15.2576024 C46.8804819,15.2203148 47.0843363,15.3955664 47.0843363,15.6509863 L47.0843363,94.005238 C47.0843363,94.2587936 46.8804819,94.4396383 46.6298719,94.4060795" id="Fill-12" fill="#844722" opacity="0.400000006"></path>
                        <path d="M32.2416791,11.9205506 L19.0435096,14.1913641 C18.6713351,14.2566173 18.3702291,13.9676386 18.3702291,13.5481534 L18.3702291,12.5041012 C18.3702291,12.0846159 18.6713351,11.6893676 19.0435096,11.62225 L32.2416791,9.21533681 C32.6549985,9.14076165 32.9916388,9.43906228 32.9916388,9.88278445 L32.9916388,10.9864968 C32.9916388,11.4320833 32.6549985,11.8497042 32.2416791,11.9205506" id="Fill-14" fill="#844722"></path>
                        <path d="M17.0919311,13.3042926 C17.0919311,14.0369935 16.5701387,14.7193562 15.9305221,14.8293545 C15.294646,14.9393529 14.7822047,14.4396993 14.7822047,13.7125916 C14.7822047,12.9873482 15.294646,12.3049855 15.9305221,12.189394 C16.5701387,12.0719381 17.0919311,12.5715917 17.0919311,13.3042926" id="Fill-16" fill="#844722"></path>
                        <path d="M20.9674089,99.3869542 C20.9674089,97.2019021 22.4037408,95.6190444 24.3057584,95.5631131 C24.0962933,95.494131 23.884958,95.4288778 23.6661418,95.3971833 C21.4742395,95.070917 19.72371,96.7675018 19.72371,99.1800081 C19.72371,101.594379 21.4742395,103.870785 23.6661418,104.271627 C23.884958,104.312643 24.0962933,104.316372 24.3057584,104.318236 C22.4037408,103.630281 20.9674089,101.572006 20.9674089,99.3869542" id="Fill-18" fill="#C7733F"></path>
                        <path d="M47.0841492,23.6754595 L3.69682712,28.918093 L3.69682712,22.1373469 C3.69682712,21.9229433 3.84083436,21.7290479 4.01850562,21.7010823 L46.6352955,15.2559244 C46.8821651,15.2186368 47.0841492,15.3938885 47.0841492,15.6455796 L47.0841492,23.6754595 Z" id="Fill-20" fill="#844722"></path>
                        <polygon id="Fill-22" fill="#FEFEFE" points="44.7940602 21.0321431 5.35665075 26.2132521 5.35665075 23.4558357 44.7940602 17.8179539"></polygon>
                        <path d="M44.3642828,50.2698922 L25.0037259,50.7695458 C24.7980013,50.7751389 24.6334216,50.5961585 24.6334216,50.3705687 L24.6334216,29.1278356 C24.6334216,28.9022457 24.7980013,28.7008928 25.0037259,28.6785203 L44.3642828,26.5158407 C44.6018012,26.4878751 44.7944342,26.6649911 44.7944342,26.9073603 L44.7944342,49.8187125 C44.7944342,50.0610818 44.6018012,50.2642991 44.3642828,50.2698922" id="Fill-24" fill="#C7733F"></path>
                        <path d="M24.6326735,39.7497614 L24.6326735,29.2104276 C24.6326735,28.9400926 24.9113368,28.6884015 25.2573282,28.6492495 L44.0699095,26.5480945 C44.4701374,26.5033494 44.7936861,26.702838 44.7936861,26.9955454 L44.7936861,38.3626635" id="Fill-26" fill="#FEFEFE"></path>
                        <polygon id="Fill-28" fill="#FFDF40" points="43.656403 28.3319322 34.2080324 29.3275106 34.2080324 33.3713484 43.656403 32.5174628"></polygon>
                        <polygon id="Fill-30" fill="#844722" points="33.3063975 37.4912529 25.9620286 38.043109 25.9620286 30.1978026 33.3063975 29.4240854"></polygon>
                        <path d="M22.13873,74.8420332 L5.67327964,73.7122195 C5.49747861,73.7010333 5.3553416,73.5220529 5.3553416,73.3132425 L5.3553416,53.6664177 C5.3553416,53.4576073 5.49747861,53.2860844 5.67327964,53.2823556 L22.13873,52.9971057 C22.338844,52.9933769 22.5015535,53.1723573 22.5015535,53.3960828 L22.5015535,74.4616999 C22.5015535,74.6854253 22.338844,74.8550838 22.13873,74.8420332" id="Fill-32" fill="#C7733F"></path>
                        <path d="M5.35571564,63.4898301 L5.35571564,53.7409928 C5.35571564,53.4911661 5.59510429,53.28422 5.89059965,53.2786269 L21.8903643,53.0008344 C22.2270046,52.9952413 22.5019275,53.2077805 22.5019275,53.476251 L22.5019275,63.9279591" id="Fill-34" fill="#FEFEFE"></path>
                        <polygon id="Fill-36" fill="#FFDF40" points="21.5400714 54.6056918 13.5242922 54.695182 13.5242922 58.4220754 21.5400714 58.4556342"></polygon>
                        <polygon id="Fill-38" fill="#844722" points="12.7571264 62.1459858 6.4918766 62.0248011 6.4918766 54.7723673 12.7571264 54.7033852"></polygon>
                        <path d="M44.3642828,76.36579 L25.0037259,75.0383523 C24.7980013,75.0234372 24.6334216,74.8295418 24.6334216,74.603952 L24.6334216,53.3612189 C24.6334216,53.135629 24.7980013,52.9510555 25.0037259,52.9473268 L44.3642828,52.6117386 C44.6018012,52.6061454 44.7944342,52.8000408 44.7944342,53.0442745 L44.7944342,75.9537623 C44.7944342,76.1979959 44.6018012,76.3825694 44.3642828,76.36579" id="Fill-40" fill="#C7733F"></path>
                        <path d="M24.6326735,63.9833312 L24.6326735,53.4439973 C24.6326735,53.1736623 24.9113368,52.9480725 25.2573282,52.9424794 L44.0699095,52.6162131 C44.4701374,52.6087555 44.7936861,52.8399385 44.7936861,53.1307816 L44.7936861,64.4997641" id="Fill-42" fill="#FEFEFE"></path>
                        <polygon id="Fill-44" fill="#FFDF40" points="43.656403 54.3610853 34.2080324 54.4654905 34.2080324 58.5074639 43.656403 58.5466159"></polygon>
                        <polygon id="Fill-46" fill="#844722" points="33.3063975 62.5432849 25.9620286 62.4015921 25.9620286 54.5562857 33.3063975 54.4761174"></polygon>
                        <path d="M22.13873,91.0792818 L5.67327964,88.8979585 C5.49747861,88.875586 5.3553416,88.6872837 5.3553416,88.4784733 L5.3553416,76.7720382 C5.3553416,76.5632278 5.49747861,76.4047555 5.67327964,76.4196706 L22.13873,77.7359221 C22.338844,77.7527015 22.5015535,77.9465969 22.5015535,78.1703224 L22.5015535,90.7213211 C22.5015535,90.9469109 22.338844,91.1053831 22.13873,91.0792818" id="Fill-48" fill="#C7733F"></path>
                        <path d="M5.35571564,86.5958235 L5.35571564,76.8469862 C5.35571564,76.5971594 5.59510429,76.4125859 5.89059965,76.4368229 L21.8903643,77.7157868 C22.2270046,77.7437525 22.5019275,77.982393 22.5019275,78.2508635 L22.5019275,88.7025716" id="Fill-50" fill="#FEFEFE"></path>
                        <polygon id="Fill-52" fill="#FFDF40" points="21.5400714 79.286526 13.5242922 78.5948414 13.5242922 82.3235992 21.5400714 83.1364684"></polygon>
                        <polygon id="Fill-54" fill="#844722" points="12.7571264 85.9723752 6.4918766 85.2415386 6.4918766 77.9891047 12.7571264 78.5297746"></polygon>
                        <path d="M44.3642828,94.1271684 L25.0037259,91.5561899 C24.7980013,91.5282243 24.6334216,91.3231426 24.6334216,91.0975527 L24.6334216,78.3433367 C24.6334216,78.1177469 24.7980013,77.9480884 25.0037259,77.9648678 L44.3642828,79.5123023 C44.6018012,79.5309461 44.7944342,79.7434853 44.7944342,79.9877189 L44.7944342,93.7431064 C44.7944342,93.98734 44.6018012,94.1588629 44.3642828,94.1271684" id="Fill-56" fill="#C7733F"></path>
                        <path d="M24.6326735,88.9650761 L24.6326735,78.4257423 C24.6326735,78.1554073 24.9113368,77.9577832 25.2573282,77.9857488 L44.0699095,79.4884382 C44.4701374,79.5219971 44.7936861,79.7830101 44.7936861,80.0757176 L44.7936861,91.4428357" id="Fill-58" fill="#FEFEFE"></path>
                        <polygon id="Fill-60" fill="#FFDF40" points="43.656403 81.193972 34.2080324 80.3792385 34.2080324 84.4212119 43.656403 85.3795027"></polygon>
                        <polygon id="Fill-62" fill="#844722" points="33.3063975 88.3692207 25.9620286 87.5134707 25.9620286 79.6681644 33.3063975 80.3020532"></polygon>
                        <path d="M27.9003285,100.536903 C27.9003285,103.193643 25.940334,104.985311 23.5632795,104.547182 C21.2292402,104.116511 19.3683675,101.690954 19.3683675,99.1218395 C19.3683675,96.5527254 21.2292402,94.7442778 23.5632795,95.0891879 C25.940334,95.4378268 27.9003285,97.8801631 27.9003285,100.536903 Z" id="Stroke-64" stroke="#844722"></path>
                        <path d="M28.3050271,59.3324066 L2.49967902,58.7041109 C2.24532858,58.6966534 2.03960396,58.4263184 2.03960396,58.1000521 L2.03960396,27.2986484 C2.03960396,26.9705177 2.24532858,26.6722171 2.49967902,26.6293364 L28.3050271,22.3934676 C28.6435376,22.3375362 28.9203307,22.6004136 28.9203307,22.9788825 L28.9203307,58.6612302 C28.9203307,59.0396991 28.6435376,59.3398641 28.3050271,59.3324066" id="Fill-74" fill="#844722" opacity="0.48267663"></path>
                        <path d="M26.2008562,57.4622931 L1.51016145,56.8600987 C1.26703235,56.8545056 1.06878863,56.5953569 1.06878863,56.2821413 L1.06878863,26.8119041 C1.06878863,26.4986885 1.26703235,26.2134385 1.51016145,26.1724222 L26.2008562,22.1192624 C26.5244049,22.0651955 26.7881064,22.3168866 26.7881064,22.6785761 L26.7881064,56.8190824 C26.7881064,57.1826363 26.5244049,57.4697506 26.2008562,57.4622931" id="Fill-76" fill="#C7733F"></path>
                        <path d="M1.06916267,41.5473956 L1.06916267,26.9250719 C1.06916267,26.5484674 1.40206251,26.1905066 1.81351175,26.123389 L25.7991321,22.1839564 C26.3452374,22.0963306 26.7884805,22.374123 26.7884805,22.8085233 L26.7884805,39.7501343" id="Fill-78" fill="#FEFEFE"></path>
                        <polygon id="Fill-80" fill="#FFDF40" points="25.2365688 24.8561707 12.8257636 26.7224139 12.8257636 32.5206323 25.2365688 31.0682811"></polygon>
                        <polygon id="Fill-82" fill="#844722" points="11.6858622 38.428849 2.6545514 39.1839224 2.6545514 28.2512046 11.6858622 26.8939368"></polygon>
                        <path d="M15.5742445,51.2979107 C15.5742445,53.1231377 14.3324159,54.5922682 12.8250155,54.5773532 C11.3437982,54.5624382 10.1599466,53.1175445 10.1599466,51.3463846 C10.1599466,49.577089 11.3437982,48.1098228 12.8250155,48.0669421 C14.3324159,48.0259258 15.5742445,49.4726838 15.5742445,51.2979107" id="Fill-84" fill="#EEF3F0"></path>
                        <path d="M24.1277131,51.2207255 C24.1277131,53.1354426 22.7643199,54.6735552 21.1091718,54.6586401 C19.4839474,54.6418607 18.186012,53.1279851 18.186012,51.2747924 C18.186012,49.4215998 19.4839474,47.8834872 21.1091718,47.8387421 C22.7643199,47.7921327 24.1277131,49.3060083 24.1277131,51.2207255" id="Fill-86" fill="#EEF3F0"></path>
                        <path d="M7.7754112,51.3681978 C7.7754112,53.1132565 6.64018535,54.5171338 5.26183041,54.5040831 C3.90591815,54.4910325 2.82118834,53.1076633 2.82118834,51.4129429 C2.82118834,49.7182225 3.90591815,48.3143452 5.26183041,48.2770576 C6.64018535,48.23977 7.7754112,49.6231392 7.7754112,51.3681978" id="Fill-88" fill="#EEF3F0"></path>
                    </g>
                </g>
            </g>
        </g>
    </g>
</svg>