<?xml version="1.0" encoding="UTF-8"?>
<svg width="120px" height="120px" viewBox="0 0 120 120" version="1.1" xmlns="http://www.w3.org/2000/svg" xmlns:xlink="http://www.w3.org/1999/xlink">
    <!-- Generator: Sketch 41.2 (35397) - http://www.bohemiancoding.com/sketch -->
    <title>webd</title>
    <desc>Created with Sketch.</desc>
    <defs></defs>
    <g id="Page-1" stroke="none" stroke-width="1" fill="none" fill-rule="evenodd">
        <g id="iPad-Pro-Portrait-Copy" transform="translate(-638.000000, -332.000000)">
            <g id="Page-1" transform="translate(645.000000, 343.000000)">
                <path d="M107.296753,64.9420211 L0.0649251382,64.9420211 L0.0649251382,6.40326461 C0.0649251382,2.8975442 2.88576437,0.0565558037 6.36662113,0.0565558037 L100.997159,0.0565558037 C104.475914,0.0565558037 107.296753,2.8975442 107.296753,6.40326461 L107.296753,64.9420211 Z" id="Fill-5" fill="#FEFEFE"></path>
                <path d="M101.08355,76.0570177 L6.27854873,76.0570177 C2.84813917,76.0570177 0.0651353348,73.2562519 0.0651353348,69.7992221 L0.0651353348,64.9428679 L107.296964,64.9428679 L107.296964,69.7992221 C107.296964,73.2562519 104.51396,76.0570177 101.08355,76.0570177" id="Fill-6" fill="#844823" opacity="0.100000001"></path>
                <path d="M102.488715,0.0576142942 L4.87338403,0.0576142942 C2.21860016,0.0576142942 0.0661863181,2.22540276 0.0661863181,4.89914966 L0.0661863181,64.9430795 L0.0661863181,71.2813204 C0.0661863181,73.9190787 2.18917263,76.0572294 4.80822306,76.0572294 L102.555978,76.0572294 C105.172926,76.0572294 107.295913,73.9190787 107.295913,71.2813204 L107.295913,64.9430795 L107.295913,4.89914966 C107.295913,2.22540276 105.143499,0.0576142942 102.488715,0.0576142942 Z" id="Stroke-7" stroke="#844722" stroke-width="2"></path>
                <polygon id="Fill-8" fill="#844823" opacity="0.300000012" points="5.80056151 59.563831 101.561958 59.563831 101.561958 5.43474584 5.80056151 5.43474584"></polygon>
                <path d="M56.7537043,69.7276681 C56.7537043,71.1926189 55.574501,72.3823622 54.1178381,72.3823622 C52.6632772,72.3823622 51.4819719,71.1926189 51.4819719,69.7276681 C51.4819719,68.2627173 52.6632772,67.0729741 54.1178381,67.0729741 C55.574501,67.0729741 56.7537043,68.2627173 56.7537043,69.7276681" id="Fill-9" fill="#C7733F"></path>
                <path d="M74.088413,99.8171648 L33.2745267,99.8171648 C30.6386605,99.8171648 28.8288673,98.4347762 29.7936699,97.1582367 L31.616075,94.7427615 C32.5262266,93.5381994 34.7606171,92.7443315 37.2493456,92.7443315 L70.1135941,92.7443315 C72.6023226,92.7443315 74.8367131,93.5381994 75.7468647,94.7427615 L77.5692697,97.1582367 C78.5340724,98.4347762 76.7242792,99.8171648 74.088413,99.8171648" id="Fill-10" fill="#844823" opacity="0.100000001"></path>
                <path d="M74.088413,99.8171648 L33.2745267,99.8171648 C30.6386605,99.8171648 28.8288673,98.4347762 29.7936699,97.1582367 L31.616075,94.7427615 C32.5262266,93.5381994 34.7606171,92.7443315 37.2493456,92.7443315 L70.1135941,92.7443315 C72.6023226,92.7443315 74.8367131,93.5381994 75.7468647,94.7427615 L77.5692697,97.1582367 C78.5340724,98.4347762 76.7242792,99.8171648 74.088413,99.8171648 Z" id="Stroke-11" stroke="#844722" stroke-width="2"></path>
                <polygon id="Fill-12" fill="#844823" opacity="0.100000001" points="42.4210243 92.74539 64.9435969 92.74539 64.9435969 76.5885916 42.4210243 76.5885916"></polygon>
                <polygon id="Stroke-13" stroke="#844722" stroke-width="2" points="42.4210243 92.74539 64.9435969 92.74539 64.9435969 76.5885916 42.4210243 76.5885916"></polygon>
                <polygon id="Fill-14" fill="#844823" opacity="0.149999991" points="58.8388032 77.439525 64.0467118 77.439525 64.0467118 92.0799041 51.4445329 92.0799041"></polygon>
                <g id="Group-8" transform="translate(12.226415, 64.285714)">
                    <polygon id="Fill-15" fill="#A14812" points="10.1886792 17.0806916 23.9061135 17.0806916 23.9061135 0.657153565 10.1886792 0.657153565"></polygon>
                    <polygon id="Fill-15-Copy-2" fill="#000000" opacity="0.0862205616" points="14.2641509 17.0806916 16.3661176 17.0806916 16.3661176 0.657153565 14.2641509 0.657153565"></polygon>
                    <polygon id="Fill-16" fill="#FFDF40" points="14.7365943 17.0809033 4.41804009 17.0809033 2.81423954 14.7691601 0.846798766 12.3028773 0.846798766 0.657365263 14.7365943 0.657365263"></polygon>
                    <polygon id="Fill-17" fill="#C7733F" points="0.846378373 12.3026656 4.68456946 12.3026656 4.4176197 17.0806916"></polygon>
                </g>
                <polygon id="Fill-18" fill="#844722" points="5.80056151 12.6536508 101.561958 12.6536508 101.561958 5.47708545 5.80056151 5.47708545"></polygon>
                <polygon id="Fill-19" fill="#FFDF40" points="12.766479 38.0574218 66.2468162 38.0574218 66.2468162 15.843941 12.766479 15.843941"></polygon>
                <polygon id="Fill-20" fill="#C7733F" points="12.764377 55.0250239 37.8303292 55.0250239 37.8303292 40.3945688 12.764377 40.3945688"></polygon>
                <polygon id="Fill-21" fill="#C7733F" points="41.180864 55.0250239 66.2468162 55.0250239 66.2468162 40.3945688 41.180864 40.3945688"></polygon>
                <polygon id="Fill-22" fill="#C7733F" points="69.5973511 55.0250239 94.5960403 55.0250239 94.5960403 40.3945688 69.5973511 40.3945688"></polygon>
                <polygon id="Fill-23" fill="#FEFEFE" points="69.5973511 19.281918 94.5960403 19.281918 94.5960403 15.843941 69.5973511 15.843941"></polygon>
                <polygon id="Fill-24" fill="#FEFEFE" points="69.599453 25.3407174 80.4561107 25.3407174 80.4561107 21.9027404 69.599453 21.9027404"></polygon>
                <polygon id="Fill-25" fill="#FFDF40" points="83.8066456 37.4625502 94.6885269 37.4625502 94.6885269 21.9048574 83.8066456 21.9048574"></polygon>
                <polygon id="Fill-26" fill="#FEFEFE" points="69.599453 31.4016338 80.4561107 31.4016338 80.4561107 27.9636568 69.599453 27.9636568"></polygon>
                <polygon id="Fill-27" fill="#FEFEFE" points="69.599453 37.4625502 80.4561107 37.4625502 80.4561107 34.0245732 69.599453 34.0245732"></polygon>
                <path d="M12.7658484,5.43538093 L12.7658484,59.5644661" id="Stroke-28" stroke="#A14912" stroke-width="0.5"></path>
                <path d="M16.5189098,5.43538093 L16.5189098,59.5644661" id="Stroke-29" stroke="#A14912" stroke-width="0.5"></path>
                <path d="M19.8700752,5.43538093 L19.8700752,59.5644661" id="Stroke-30" stroke="#A14912" stroke-width="0.5"></path>
                <path d="M23.6231367,5.43538093 L23.6231367,59.5644661" id="Stroke-31" stroke="#A14912" stroke-width="0.5"></path>
                <path d="M26.9740919,5.43538093 L26.9740919,59.5644661" id="Stroke-32" stroke="#A14912" stroke-width="0.5"></path>
                <path d="M30.7271533,5.43538093 L30.7271533,59.5644661" id="Stroke-33" stroke="#A14912" stroke-width="0.5"></path>
                <path d="M34.0781085,5.43538093 L34.0781085,59.5644661" id="Stroke-34" stroke="#A14912" stroke-width="0.5"></path>
                <path d="M37.83117,5.43538093 L37.83117,59.5644661" id="Stroke-35" stroke="#A14912" stroke-width="0.5"></path>
                <path d="M41.1821252,5.43538093 L41.1821252,59.5644661" id="Stroke-36" stroke="#A14912" stroke-width="0.5"></path>
                <path d="M44.9351866,5.43538093 L44.9351866,59.5644661" id="Stroke-37" stroke="#A14912" stroke-width="0.5"></path>
                <path d="M48.2861419,5.43538093 L48.2861419,59.5644661" id="Stroke-38" stroke="#A14912" stroke-width="0.5"></path>
                <path d="M52.0392033,5.43538093 L52.0392033,59.5644661" id="Stroke-39" stroke="#A14912" stroke-width="0.5"></path>
                <path d="M55.3901585,5.43538093 L55.3901585,59.5644661" id="Stroke-40" stroke="#A14912" stroke-width="0.5"></path>
                <path d="M59.14322,5.43538093 L59.14322,59.5644661" id="Stroke-41" stroke="#A14912" stroke-width="0.5"></path>
                <path d="M62.4941752,5.43538093 L62.4941752,59.5644661" id="Stroke-42" stroke="#A14912" stroke-width="0.5"></path>
                <path d="M66.2472366,5.43538093 L66.2472366,59.5644661" id="Stroke-43" stroke="#A14912" stroke-width="0.5"></path>
                <path d="M69.5981918,5.43538093 L69.5981918,59.5644661" id="Stroke-44" stroke="#A14912" stroke-width="0.5"></path>
                <path d="M73.3512533,5.43538093 L73.3512533,59.5644661" id="Stroke-45" stroke="#A14912" stroke-width="0.5"></path>
                <path d="M76.7022085,5.43538093 L76.7022085,59.5644661" id="Stroke-46" stroke="#A14912" stroke-width="0.5"></path>
                <path d="M80.4552699,5.43538093 L80.4552699,59.5644661" id="Stroke-47" stroke="#A14912" stroke-width="0.5"></path>
                <path d="M83.8062252,5.43538093 L83.8062252,59.5644661" id="Stroke-48" stroke="#A14912" stroke-width="0.5"></path>
                <path d="M87.5592866,5.43538093 L87.5592866,59.5644661" id="Stroke-49" stroke="#A14912" stroke-width="0.5"></path>
                <path d="M90.9102418,5.43538093 L90.9102418,59.5644661" id="Stroke-50" stroke="#A14912" stroke-width="0.5"></path>
                <path d="M94.6633033,5.43538093 L94.6633033,59.5644661" id="Stroke-51" stroke="#A14912" stroke-width="0.5"></path>
            </g>
        </g>
    </g>
</svg>