<?xml version="1.0" encoding="UTF-8"?>
<svg width="112px" height="35px" viewBox="0 0 112 35" version="1.1" xmlns="http://www.w3.org/2000/svg" xmlns:xlink="http://www.w3.org/1999/xlink">
    <!-- Generator: Sketch 41.2 (35397) - http://www.bohemiancoding.com/sketch -->
    <title>freeshop_logo</title>
    <desc>Created with Sketch.</desc>
    <defs>
        <polygon id="path-1" points="13.0535 0.127 0.1125 0.127 0.1125 28.9609 13.0535 28.9609"></polygon>
        <polygon id="path-3" points="14.366 0.127 0.533 0.127 0.533 28.9609 14.366 28.9609"></polygon>
        <polygon id="path-5" points="14.416 0.127 0.048 0.127 0.048 28.9607 14.416 28.9607"></polygon>
        <polygon id="path-7" points="13.318 28.9613 13.318 0.1273 0.3342 0.1273 0.3342 28.9613"></polygon>
    </defs>
    <g id="Page-1" stroke="none" stroke-width="1" fill="none" fill-rule="evenodd">
        <g id="freeshop_logo" transform="translate(0.000000, -1.000000)">
            <g id="Page-1">
                <g id="Artboard">
                    <g>
                        <g id="Page-1">
                            <polygon id="Fill-1" fill="#874C10" points="0 1.0611 0 29.7741 4.267 29.7741 4.267 16.7351 9.864 16.7351 9.864 13.2571 4.267 13.2571 4.267 4.5401 10.575 4.5401 10.575 1.0611"></polygon>
                            <g id="Group-20" transform="translate(12.000000, 0.873100)">
                                <path d="M4.9502,14.0244 L7.7492,14.0244 C9.0232,14.0244 9.6612,13.3314 9.6612,11.9434 L9.6612,5.7474 C9.6612,4.3614 9.0232,3.6674 7.7492,3.6674 L4.9502,3.6674 L4.9502,14.0244 Z M0.6842,0.1884 L9.0382,0.1884 C12.2972,0.1884 13.9272,1.8264 13.9272,5.1074 L13.9272,12.1844 C13.9272,14.6914 13.0832,16.2784 11.3932,16.9424 L14.3712,28.9004 L10.3272,28.9004 L7.5282,17.3024 L4.9502,17.3024 L4.9502,28.9004 L0.6842,28.9004 L0.6842,0.1884 Z" id="Fill-2" fill="#874C10"></path>
                                <polygon id="Fill-4" fill="#874C10" points="15.9815 35 15.9815 0.188 26.5565 0.188 26.5565 3.667 20.2475 3.667 20.2475 15.725 25.8455 15.725 25.8455 19.204 20.2475 19.204 20.2475 31.521 58.8735 31.521"></polygon>
                                <polygon id="Fill-6" fill="#874C10" points="28.3877 28.9003 28.3877 0.1883 38.9637 0.1883 38.9637 3.6673 32.6537 3.6673 32.6537 12.3833 38.2527 12.3833 38.2527 15.8623 32.6537 15.8623 32.6537 25.4213 38.9637 25.4213 38.9637 28.9003"></polygon>
                                <g id="Group-10" transform="translate(40.000000, 0.000000)">
                                    <g id="Fill-8-Clipped">
                                        <mask id="mask-2" fill="white">
                                            <use xlink:href="#path-1"></use>
                                        </mask>
                                        <g id="path-1"></g>
                                        <path d="M8.7695,7.8769 L8.7695,5.3479 C8.7695,4.1969 8.1445,3.6199 6.8955,3.6199 L6.2255,3.6199 C5.0055,3.6199 4.3965,4.1969 4.3965,5.3479 L4.3965,10.1259 C4.3965,10.6619 4.5145,11.0229 4.7525,11.2099 C4.9915,11.3979 5.3775,11.6399 5.9145,11.9329 L9.9735,13.9009 C10.8665,14.3579 11.4985,14.7109 11.8705,14.9659 C12.2425,15.2209 12.5325,15.5279 12.7415,15.8889 C12.9485,16.2509 13.0535,16.9409 13.0535,17.9569 L13.0535,24.1009 C13.0535,27.3419 11.3275,28.9609 7.8765,28.9609 L5.2445,28.9609 C1.8235,28.9609 0.1125,27.1949 0.1125,23.6599 L0.1125,22.2139 L4.3965,22.2139 L4.3965,23.7789 C4.3965,24.9049 5.0365,25.4679 6.3155,25.4679 L7.0735,25.4679 C8.2045,25.4679 8.7695,24.9049 8.7695,23.7789 L8.7695,18.8809 C8.7695,18.3459 8.6505,17.9839 8.4135,17.7959 C8.1745,17.6089 7.7885,17.3689 7.2515,17.0729 L3.1925,15.0249 C2.2995,14.5969 1.6515,14.2359 1.2515,13.9409 C0.8485,13.6469 0.5595,13.2659 0.3795,12.7969 C0.2025,12.3289 0.1125,11.7199 0.1125,10.9689 L0.1125,5.0669 C0.1125,1.7729 1.8235,0.1269 5.2445,0.1269 L7.9205,0.1269 C11.3415,0.1269 13.0535,1.7729 13.0535,5.0669 L13.0535,7.8769 L8.7695,7.8769 Z" id="Fill-8" fill="#874C10" mask="url(#mask-2)"></path>
                                    </g>
                                </g>
                                <g id="Group-13" transform="translate(54.000000, 0.000000)">
                                    <g id="Fill-11-Clipped">
                                        <mask id="mask-4" fill="white">
                                            <use xlink:href="#path-3"></use>
                                        </mask>
                                        <g id="path-3"></g>
                                        <polygon id="Fill-11" fill="#874C10" mask="url(#mask-4)" points="10.083 28.9609 10.083 15.8679 4.817 15.8679 4.817 28.9609 0.533 28.9609 0.533 0.1269 4.817 0.1269 4.817 12.3749 10.083 12.3749 10.083 0.1269 14.366 0.1269 14.366 28.9609"></polygon>
                                    </g>
                                </g>
                                <g id="Group-16" transform="translate(70.000000, 0.000000)">
                                    <g id="Fill-14-Clipped">
                                        <mask id="mask-6" fill="white">
                                            <use xlink:href="#path-5"></use>
                                        </mask>
                                        <g id="path-5"></g>
                                        <path d="M6.25,25.4677 L8.438,25.4677 C9.566,25.4677 10.133,24.9057 10.133,23.7797 L10.133,5.3067 C10.133,4.1827 9.492,3.6197 8.214,3.6197 L6.205,3.6197 C4.956,3.6197 4.332,4.1827 4.332,5.3067 L4.332,23.7797 C4.332,24.9057 4.971,25.4677 6.25,25.4677 L6.25,25.4677 Z M5.225,28.9607 C1.773,28.9607 0.048,27.3267 0.048,24.0617 L0.048,5.0677 C0.048,1.7727 1.759,0.1267 5.18,0.1267 L9.284,0.1267 C12.705,0.1267 14.416,1.7727 14.416,5.0677 L14.416,24.0617 C14.416,27.3267 12.69,28.9607 9.24,28.9607 L5.225,28.9607 Z" id="Fill-14" fill="#874C10" mask="url(#mask-6)"></path>
                                    </g>
                                </g>
                                <g id="Group-19" transform="translate(86.000000, 0.000000)">
                                    <g id="Fill-17-Clipped">
                                        <mask id="mask-8" fill="white">
                                            <use xlink:href="#path-7"></use>
                                        </mask>
                                        <g id="path-7"></g>
                                        <path d="M4.6172,15.0253 L7.3402,15.0253 C8.4712,15.0253 9.0352,14.4643 9.0352,13.3393 L9.0352,5.3063 C9.0352,4.1823 8.3952,3.6203 7.1162,3.6203 L4.6172,3.6203 L4.6172,15.0253 Z M0.3342,0.1273 L8.1422,0.1273 C11.5942,0.1273 13.3182,1.7723 13.3182,5.0673 L13.3182,13.6193 C13.3182,16.8863 11.6072,18.5203 8.1872,18.5203 L4.6172,18.5203 L4.6172,28.9613 L0.3342,28.9613 L0.3342,0.1273 Z" id="Fill-17" fill="#874C10" mask="url(#mask-8)"></path>
                                    </g>
                                </g>
                            </g>
                        </g>
                    </g>
                </g>
            </g>
        </g>
    </g>
</svg>