<?xml version="1.0" encoding="UTF-8"?>
<svg width="78px" height="12px" viewBox="0 0 78 12" version="1.1" xmlns="http://www.w3.org/2000/svg" xmlns:xlink="http://www.w3.org/1999/xlink">
    <!-- Generator: Sketch 41.2 (35397) - http://www.bohemiancoding.com/sketch -->
    <title>journeykaffee_logo</title>
    <desc>Created with Sketch.</desc>
    <defs>
        <polygon id="path-1" points="4.4759 12 0 12 0 0.33 4.4759 0.33"></polygon>
    </defs>
    <g id="Page-1" stroke="none" stroke-width="1" fill="none" fill-rule="evenodd">
        <g id="journeykaffee_logo" transform="translate(0.000000, -1.000000)">
            <g id="Page-1">
                <g id="Group-3" transform="translate(0.000000, 0.670100)">
                    <g id="Fill-1-Clipped">
                        <mask id="mask-2" fill="white">
                            <use xlink:href="#path-1"></use>
                        </mask>
                        <g id="path-1"></g>
                        <path d="M1.9979,7.4394 L1.9979,2.4154 L0.1339,2.4154 L0.7359,0.3294 L4.4759,0.3294 L4.4759,7.4434 C4.4759,8.6204 4.2039,9.5614 3.6619,10.2664 C3.1209,10.9714 2.2249,11.5504 0.9739,12.0004 L-0.0001,10.0694 C0.7469,9.7634 1.2659,9.4194 1.5589,9.0354 C1.8509,8.6514 1.9979,8.1194 1.9979,7.4394" id="Fill-1" fill="#874C10" mask="url(#mask-2)"></path>
                    </g>
                </g>
                <path d="M9.852,6.0467 C9.852,5.3867 9.521,5.0577 8.86,5.0577 C8.186,5.0577 7.85,5.3867 7.85,6.0467 C7.85,6.4577 7.935,6.9147 8.111,7.4177 C8.334,8.0537 8.583,8.3717 8.86,8.3717 C9.063,8.3717 9.253,8.1867 9.432,7.8167 C9.712,7.2357 9.852,6.6467 9.852,6.0467 M8.86,3.2127 C9.996,3.2127 10.82,3.4147 11.332,3.8177 C11.844,4.2217 12.099,4.8677 12.099,5.7567 C12.099,7.1627 11.683,8.3597 10.851,9.3487 C10.303,9.9997 9.639,10.3247 8.86,10.3247 C8.064,10.3247 7.394,9.9997 6.85,9.3487 C6.018,8.3517 5.602,7.1907 5.602,5.8647 C5.602,4.9237 5.856,4.2467 6.362,3.8337 C6.871,3.4187 7.703,3.2127 8.86,3.2127" id="Fill-4" fill="#874C10"></path>
                <path d="M15.7717,10.1502 C13.7087,10.1502 12.6777,9.2282 12.6777,7.3832 C12.6777,6.3222 13.0727,4.9562 13.8647,3.2852 L16.0817,3.2852 C15.3347,5.1682 14.9607,6.4652 14.9607,7.1772 C14.9607,7.5992 15.0537,7.8932 15.2417,8.0582 C15.4277,8.2242 15.7627,8.3052 16.2457,8.3052 L16.6967,8.3052 L16.6967,3.2852 L18.9127,3.2852 L18.9127,10.1502 L15.7717,10.1502 Z" id="Fill-6" fill="#874C10"></path>
                <path d="M20.3563,3.2851 L22.6143,3.2851 L22.6143,3.6341 C22.9073,3.3531 23.3393,3.2121 23.9123,3.2121 L24.0463,3.2121 L24.0463,5.1231 C23.3803,5.1391 22.9023,5.3741 22.6143,5.8291 L22.6143,10.1501 L20.3563,10.1501 L20.3563,3.2851 Z" id="Fill-8" fill="#874C10"></path>
                <path d="M25.0932,3.2851 L28.3092,3.2851 C29.2872,3.2851 29.9692,3.4821 30.3582,3.8751 C30.7442,4.2691 30.9382,4.9661 30.9382,5.9671 L30.9382,10.1501 L28.7222,10.1501 L28.7222,6.2871 C28.7222,5.7851 28.6612,5.4661 28.5402,5.3281 C28.4382,5.2111 28.2112,5.1531 27.8582,5.1531 L27.3102,5.1531 L27.3102,10.1501 L25.0932,10.1501 L25.0932,3.2851 Z" id="Fill-10" fill="#874C10"></path>
                <path d="M34.1721,6.9129 C35.2441,6.3629 35.7801,5.8489 35.7801,5.3699 C35.7801,5.0859 35.5461,4.9429 35.0791,4.9429 C34.7461,4.9429 34.4831,5.0459 34.2871,5.2529 C34.0931,5.4599 33.9961,5.7419 33.9961,6.0999 C33.9961,6.3609 34.0541,6.6319 34.1721,6.9129 L34.1721,6.9129 Z M36.2181,10.1499 C34.9511,10.1499 33.9401,9.7889 33.1861,9.0649 C32.3291,8.2449 31.9001,7.1959 31.9001,5.9189 C31.9001,4.9789 32.1601,4.2929 32.6771,3.8599 C33.1941,3.4289 34.0141,3.2119 35.1341,3.2119 C36.1611,3.2119 36.9021,3.3609 37.3561,3.6579 C37.8111,3.9559 38.0381,4.4359 38.0381,5.0989 C38.0381,6.2409 37.2331,7.2689 35.6211,8.1849 C35.8331,8.2779 36.1151,8.3239 36.4681,8.3239 L37.6731,8.3239 L37.1611,10.1499 L36.2181,10.1499 Z" id="Fill-12" fill="#874C10"></path>
                <polygon id="Fill-14" fill="#874C10" points="40.5428 9.4602 38.1118 3.2852 40.6388 3.2852 41.6748 6.7082 42.8248 3.2852 45.1328 3.2852 41.7188 12.6102 39.3928 12.6102"></polygon>
                <polygon id="Fill-16" fill="#874C10" points="48.4997 1.1922 50.8987 1.1922 50.8987 5.0722 52.9577 1.1922 55.6327 1.1922 53.4497 5.0612 55.9777 9.9832 53.1977 9.9832 50.8987 5.2182 50.8987 9.9832 48.4997 9.9832"></polygon>
                <path d="M58.9638,5.1592 C58.2538,5.1592 57.8988,5.4832 57.8988,6.1312 C57.8988,6.6312 58.0478,7.0742 58.3468,7.4572 C58.6458,7.8402 59.0378,8.0912 59.5258,8.2062 L59.5258,5.1592 L58.9638,5.1592 Z M60.1818,9.9832 C58.7848,9.9832 57.7368,9.6482 57.0388,8.9772 C56.1848,8.1582 55.7568,7.1422 55.7568,5.9302 C55.7568,4.2342 56.6878,3.3882 58.5498,3.3882 L61.6668,3.3882 L61.6668,9.9832 L60.1818,9.9832 Z" id="Fill-18" fill="#874C10"></path>
                <path d="M63.2408,5.1823 L62.7728,5.1823 L62.7728,3.3883 L63.2408,3.3883 L63.2408,3.2713 C63.2408,2.5293 63.3978,1.9993 63.7098,1.6753 C64.0208,1.3533 64.5398,1.1923 65.2658,1.1923 L66.4128,1.1923 L66.9398,2.8423 L66.0328,2.8423 C65.7938,2.8423 65.6308,2.8833 65.5408,2.9623 C65.4508,3.0403 65.4058,3.1823 65.4058,3.3883 L65.4058,3.4503 L66.6178,3.4503 L66.6178,5.1823 L65.4058,5.1823 L65.4058,9.9833 L63.2408,9.9833 L63.2408,5.1823 Z" id="Fill-20" fill="#874C10"></path>
                <path d="M67.88,5.1823 L67.412,5.1823 L67.412,3.3883 L67.88,3.3883 L67.88,3.2713 C67.88,2.5293 68.038,1.9993 68.349,1.6753 C68.66,1.3533 69.18,1.1923 69.905,1.1923 L71.052,1.1923 L71.578,2.8423 L70.672,2.8423 C70.434,2.8423 70.27,2.8833 70.179,2.9623 C70.09,3.0403 70.045,3.1823 70.045,3.3883 L70.045,3.4503 L71.257,3.4503 L71.257,5.1823 L70.045,5.1823 L70.045,9.9833 L67.88,9.9833 L67.88,5.1823 Z" id="Fill-22" fill="#874C10"></path>
                <path d="M74.0654,6.8731 C75.0944,6.3451 75.6094,5.8511 75.6094,5.3921 C75.6094,5.1181 75.3854,4.9801 74.9364,4.9801 C74.6164,4.9801 74.3634,5.0781 74.1764,5.2781 C73.9884,5.4771 73.8954,5.7481 73.8954,6.0921 C73.8954,6.3421 73.9514,6.6031 74.0654,6.8731 M76.0304,9.9831 C74.8924,9.9441 73.8434,9.6361 73.1164,8.9411 C72.2934,8.1551 71.8824,7.1461 71.8824,5.9181 C71.8824,5.0151 72.1304,4.3561 72.6274,3.9401 C73.1254,3.5261 73.9124,3.3171 74.9894,3.3171 C75.9764,3.3171 76.6874,3.4601 77.1244,3.7461 C77.5624,4.0321 77.7804,4.4931 77.7804,5.1311 C77.7804,6.2281 77.0064,7.2161 75.4574,8.0961 C75.6604,8.1851 75.7404,8.1931 76.2704,8.2281 C76.8004,8.2641 77.5074,8.2051 77.5074,8.2051 L76.8914,9.9471 C76.8914,9.9471 76.7114,10.0071 76.0304,9.9831" id="Fill-24" fill="#874C10"></path>
            </g>
        </g>
    </g>
</svg>