<?xml version="1.0" encoding="UTF-8"?>
<svg width="83px" height="19px" viewBox="0 0 83 19" version="1.1" xmlns="http://www.w3.org/2000/svg" xmlns:xlink="http://www.w3.org/1999/xlink">
    <!-- Generator: Sketch 41.2 (35397) - http://www.bohemiancoding.com/sketch -->
    <title>meepshop_logo</title>
    <desc>Created with Sketch.</desc>
    <defs>
        <polygon id="path-1" points="7.864 12.9995 7.864 0.2815 0.3016 0.2815 0.3016 12.9995"></polygon>
        <polygon id="path-3" points="0 0.5688 0 9.8488 13.7168 9.8488 13.7168 0.5688 1.35525272e-20 0.5688"></polygon>
    </defs>
    <g id="Page-1" stroke="none" stroke-width="1" fill="none" fill-rule="evenodd">
        <g id="meepshop_logo" transform="translate(0.000000, -1.000000)">
            <g id="Page-1">
                <g id="Artboard">
                    <g>
                        <g id="Page-1">
                            <path d="M21.5509,9.3483 C21.4959,8.8253 21.3169,8.4053 21.0129,8.0893 C20.7089,7.7733 20.3359,7.6153 19.8919,7.6153 C19.4159,7.6153 19.0369,7.7593 18.7549,8.0483 C18.4729,8.3373 18.2859,8.7703 18.1919,9.3483 L21.5509,9.3483 Z M24.4329,11.1823 L18.1269,11.1823 C18.1319,11.8933 18.2969,12.4433 18.6199,12.8293 C18.9419,13.2153 19.3999,13.4083 19.9909,13.4083 C20.4339,13.4083 20.8079,13.3153 21.1119,13.1303 C21.4149,12.9443 21.6469,12.6693 21.8049,12.3043 L24.0059,13.2893 C23.7429,13.9953 23.2779,14.5393 22.6099,14.9233 C21.9419,15.3063 21.1239,15.4973 20.1549,15.4973 C18.7099,15.4973 17.5509,15.0523 16.6779,14.1613 C15.8039,13.2703 15.3679,12.0943 15.3679,10.6353 C15.3679,9.1993 15.8039,8.0073 16.6779,7.0583 C17.5509,6.1093 18.6549,5.6353 19.9909,5.6353 C21.3649,5.6353 22.4489,6.1153 23.2419,7.0763 C24.0359,8.0373 24.4329,9.3543 24.4329,11.0273 L24.4329,11.1823 Z" id="Fill-1" fill="#874C10"></path>
                            <path d="M31.8231,9.3483 C31.7681,8.8253 31.5891,8.4053 31.2851,8.0893 C30.9811,7.7733 30.6081,7.6153 30.1641,7.6153 C29.6881,7.6153 29.3091,7.7593 29.0271,8.0483 C28.7451,8.3373 28.5581,8.7703 28.4641,9.3483 L31.8231,9.3483 Z M34.7051,11.1823 L28.3991,11.1823 C28.4041,11.8933 28.5691,12.4433 28.8921,12.8293 C29.2141,13.2153 29.6721,13.4083 30.2631,13.4083 C30.7061,13.4083 31.0801,13.3153 31.3841,13.1303 C31.6871,12.9443 31.9191,12.6693 32.0771,12.3043 L34.2781,13.2893 C34.0151,13.9953 33.5501,14.5393 32.8821,14.9233 C32.2141,15.3063 31.3961,15.4973 30.4271,15.4973 C28.9821,15.4973 27.8231,15.0523 26.9501,14.1613 C26.0761,13.2703 25.6401,12.0943 25.6401,10.6353 C25.6401,9.1993 26.0761,8.0073 26.9501,7.0583 C27.8231,6.1093 28.9271,5.6353 30.2631,5.6353 C31.6371,5.6353 32.7211,6.1153 33.5141,7.0763 C34.3081,8.0373 34.7051,9.3543 34.7051,11.0273 L34.7051,11.1823 Z" id="Fill-3" fill="#874C10"></path>
                            <path d="M38.9916,10.5616 C38.9916,11.2796 39.1596,11.8456 39.4966,12.2586 C39.8326,12.6726 40.2976,12.8786 40.8886,12.8786 C41.4796,12.8786 41.9466,12.6726 42.2886,12.2586 C42.6306,11.8456 42.8016,11.2796 42.8016,10.5616 C42.8016,9.8436 42.6316,9.2786 42.2926,8.8646 C41.9526,8.4516 41.4846,8.2446 40.8886,8.2446 C40.2976,8.2446 39.8326,8.4516 39.4966,8.8646 C39.1596,9.2786 38.9916,9.8436 38.9916,10.5616 L38.9916,10.5616 Z M36.3966,19.2106 L36.3966,5.9266 L39.0896,5.9266 L39.0896,7.4776 C39.4626,6.8576 39.8806,6.3956 40.3466,6.0916 C40.8116,5.7866 41.3286,5.6356 41.8986,5.6356 C43.0646,5.6356 43.9926,6.0776 44.6816,6.9626 C45.3716,7.8476 45.7166,9.0466 45.7166,10.5616 C45.7166,12.0336 45.3726,13.2246 44.6866,14.1336 C43.9986,15.0426 43.1026,15.4976 41.9966,15.4976 C41.2966,15.4976 40.7256,15.3546 40.2846,15.0686 C39.8436,14.7826 39.4516,14.3116 39.1066,13.6546 C39.1336,13.8366 39.1546,14.0596 39.1676,14.3206 C39.1816,14.5826 39.1886,14.9046 39.1886,15.2876 L39.1886,19.2106 L36.3966,19.2106 Z" id="Fill-5" fill="#874C10"></path>
                            <path d="M52.2278,7.7241 C53.0108,8.0951 53.6008,8.5881 53.9968,9.2021 C54.3938,9.8171 54.5928,10.5431 54.5928,11.3831 C54.5928,12.6121 54.2408,13.6011 53.5378,14.3531 C52.8338,15.1041 51.9018,15.4791 50.7418,15.4791 C49.7948,15.4791 49.0008,15.2101 48.3598,14.6721 C47.7198,14.1341 47.2878,13.3691 47.0628,12.3771 L48.3598,11.6661 C48.5358,12.4751 48.8238,13.0871 49.2268,13.5041 C49.6288,13.9201 50.1338,14.1291 50.7418,14.1291 C51.4588,14.1291 52.0388,13.8991 52.4828,13.4401 C52.9258,12.9811 53.1478,12.3831 53.1478,11.6471 C53.1478,11.0511 52.9928,10.5331 52.6838,10.0921 C52.3738,9.6511 51.9078,9.2781 51.2838,8.9741 L49.8218,8.2811 C49.0228,7.9101 48.4278,7.4321 48.0358,6.8481 C47.6448,6.2641 47.4488,5.5651 47.4488,4.7501 C47.4488,3.8011 47.7668,3.0161 48.4018,2.3961 C49.0368,1.7761 49.8468,1.4651 50.8318,1.4651 C51.5548,1.4651 52.1798,1.6361 52.7078,1.9771 C53.2358,2.3171 53.6488,2.8191 53.9438,3.4821 L52.7618,4.3211 C52.4938,3.8041 52.1918,3.4191 51.8578,3.1671 C51.5248,2.9151 51.1468,2.7881 50.7248,2.7881 C50.1888,2.7881 49.7498,2.9711 49.4068,3.3361 C49.0648,3.7011 48.8938,4.1661 48.8938,4.7321 C48.8938,5.2061 49.0258,5.6161 49.2888,5.9631 C49.5508,6.3101 49.9588,6.6171 50.5118,6.8851 L52.2278,7.7241 Z" id="Fill-7" fill="#874C10"></path>
                            <g id="Group-11" transform="translate(56.000000, 0.210800)" fill="#874C10">
                                <path d="M0.3663,14.9309 L0.3663,0.7889 L1.6223,0.7889 L1.6223,7.8689 C1.9453,7.3339 2.3343,6.9359 2.7883,6.6739 C3.2433,6.4129 3.7683,6.2819 4.3653,6.2819 C5.2523,6.2819 5.9443,6.5429 6.4423,7.0659 C6.9403,7.5889 7.1893,8.3169 7.1893,9.2469 L7.1893,14.9309 L5.8763,14.9309 L5.8763,10.0129 C5.8763,9.1679 5.7163,8.5399 5.3963,8.1299 C5.0753,7.7189 4.5813,7.5129 3.9133,7.5129 C3.5303,7.5129 3.1813,7.5909 2.8663,7.7459 C2.5513,7.9009 2.2903,8.1219 2.0823,8.4079 C1.9233,8.6269 1.8103,8.8759 1.7423,9.1559 C1.6733,9.4359 1.6393,9.9219 1.6393,10.6159 L1.6393,14.9309 L0.3663,14.9309 Z" id="Fill-9"></path>
                            </g>
                            <path d="M66.4908,10.9903 C66.4908,11.8723 66.7568,12.6193 67.2878,13.2303 C67.8188,13.8413 68.4618,14.1473 69.2168,14.1473 C69.9668,14.1473 70.6048,13.8413 71.1298,13.2303 C71.6558,12.6193 71.9188,11.8723 71.9188,10.9903 C71.9188,10.1083 71.6558,9.3623 71.1298,8.7503 C70.6048,8.1393 69.9668,7.8333 69.2168,7.8333 C68.4558,7.8333 67.8118,8.1393 67.2828,8.7503 C66.7548,9.3623 66.4908,10.1083 66.4908,10.9903 M65.1278,10.9903 C65.1278,10.3763 65.2288,9.7973 65.4318,9.2523 C65.6338,8.7083 65.9298,8.2233 66.3188,7.7973 C66.7068,7.3713 67.1478,7.0473 67.6408,6.8253 C68.1328,6.6033 68.6588,6.4923 69.2168,6.4923 C69.7648,6.4923 70.2828,6.6053 70.7728,6.8303 C71.2628,7.0553 71.7078,7.3833 72.1078,7.8153 C72.4958,8.2353 72.7918,8.7173 72.9948,9.2613 C73.1968,9.8063 73.2978,10.3823 73.2978,10.9903 C73.2978,11.5983 73.1968,12.1723 72.9948,12.7103 C72.7918,13.2483 72.4958,13.7273 72.1078,14.1473 C71.7078,14.5853 71.2608,14.9203 70.7648,15.1513 C70.2698,15.3813 69.7538,15.4973 69.2168,15.4973 C68.6638,15.4973 68.1398,15.3833 67.6448,15.1553 C67.1488,14.9273 66.7068,14.6003 66.3188,14.1743 C65.9298,13.7373 65.6338,13.2503 65.4318,12.7143 C65.2288,12.1793 65.1278,11.6053 65.1278,10.9903" id="Fill-12" fill="#874C10"></path>
                            <g id="Group-16" transform="translate(75.000000, 6.210800)">
                                <g id="Fill-14-Clipped">
                                    <mask id="mask-2" fill="white">
                                        <use xlink:href="#path-1"></use>
                                    </mask>
                                    <g id="path-1"></g>
                                    <path d="M1.5416,4.7795 C1.5416,5.7165 1.7746,6.4675 2.2396,7.0335 C2.7046,7.5985 3.3206,7.8815 4.0866,7.8815 C4.8376,7.8815 5.4266,7.6235 5.8566,7.1065 C6.2866,6.5895 6.5016,5.8715 6.5016,4.9525 C6.5016,3.9255 6.2866,3.1195 5.8566,2.5355 C5.4266,1.9515 4.8286,1.6595 4.0626,1.6595 C3.2796,1.6595 2.6636,1.9365 2.2146,2.4895 C1.7656,3.0435 1.5416,3.8065 1.5416,4.7795 L1.5416,4.7795 Z M0.3016,12.9995 L0.3016,0.5825 L1.5246,0.5825 L1.5246,2.1525 C1.8156,1.5505 2.1986,1.0875 2.6746,0.7655 C3.1506,0.4435 3.6816,0.2815 4.2676,0.2815 C5.3516,0.2815 6.2216,0.6925 6.8786,1.5135 C7.5356,2.3345 7.8646,3.4235 7.8646,4.7795 C7.8646,6.1605 7.5426,7.2565 6.8996,8.0685 C6.2566,8.8805 5.3956,9.2865 4.3166,9.2865 C3.6986,9.2865 3.1596,9.1295 2.6996,8.8165 C2.2396,8.5035 1.8646,8.0365 1.5746,7.4165 L1.5746,12.9995 L0.3016,12.9995 Z" id="Fill-14" fill="#874C10" mask="url(#mask-2)"></path>
                                </g>
                            </g>
                            <g id="Group-19" transform="translate(0.000000, 5.210800)">
                                <g id="Fill-17-Clipped">
                                    <mask id="mask-4" fill="white">
                                        <use xlink:href="#path-3"></use>
                                    </mask>
                                    <g id="path-3"></g>
                                    <path d="M10.1568,0.5688 C7.5518,0.5688 6.8788,2.7788 6.8598,2.8408 L6.8598,2.8408 L6.8588,2.8448 L6.8568,2.8408 L6.8568,2.8408 C6.8388,2.7788 6.1648,0.5688 3.5598,0.5688 C1.7328,0.5688 -0.0002,1.5898 -0.0002,3.8678 L-0.0002,9.8488 L2.6348,9.8488 L2.6348,4.9118 C2.6348,4.9118 2.5118,2.5968 3.9838,2.5968 C5.4548,2.5968 5.3638,4.9118 5.3638,4.9118 L5.3638,9.8488 L6.8498,9.8488 L6.8568,9.8488 L6.8598,9.8488 L6.8668,9.8488 L8.3528,9.8488 L8.3528,4.9118 C8.3528,4.9118 8.2618,2.5968 9.7338,2.5968 C11.2048,2.5968 11.0828,4.9118 11.0828,4.9118 L11.0828,9.8488 L13.7168,9.8488 L13.7168,3.8678 C13.7168,1.5898 11.9838,0.5688 10.1568,0.5688" id="Fill-17" fill="#874C10" mask="url(#mask-4)"></path>
                                </g>
                            </g>
                        </g>
                    </g>
                </g>
            </g>
        </g>
    </g>
</svg>