<?xml version="1.0" encoding="UTF-8"?>
<svg width="120px" height="60px" viewBox="0 0 120 60" version="1.1" xmlns="http://www.w3.org/2000/svg" xmlns:xlink="http://www.w3.org/1999/xlink">
    <!-- Generator: Sketch 41.2 (35397) - http://www.bohemiancoding.com/sketch -->
    <title>hello</title>
    <desc>Created with Sketch.</desc>
    <defs></defs>
    <g id="Page-1" stroke="none" stroke-width="1" fill="none" fill-rule="evenodd">
        <g id="iPad-Pro-Portrait-Copy" transform="translate(-671.000000, -490.000000)">
            <rect id="Rectangle-15" opacity="0.665647645" x="671" y="490" width="120" height="60"></rect>
            <g id="Group-7" transform="translate(683.000000, 501.000000)">
                <rect id="Rectangle-16" fill="#FFFFFF" x="3.65601966" y="0" width="91.3439803" height="39" rx="19.5"></rect>
                <path d="M20.8920097,12.4075152 L20.8920097,27.319697 L24.7868022,27.319697 L24.7868022,21.5973333 L30.8098965,21.5973333 L30.8098965,27.319697 L34.704689,27.319697 L34.704689,12.4075152 L30.8098965,12.4075152 L30.8098965,18.4915152 L24.7868022,18.4915152 L24.7868022,12.4075152 L20.8920097,12.4075152 Z M42.664538,15.6835152 C39.0677078,15.6835152 36.6627267,18.0447879 36.6627267,21.6186061 C36.6627267,25.1286061 38.9825758,27.4473333 42.7496701,27.4473333 C44.877972,27.4473333 46.6018965,26.7240606 47.7724626,25.4051515 L45.7931418,23.4267879 C45.0269531,24.1926061 44.0692173,24.5967879 43.0901984,24.5967879 C41.7919343,24.5967879 40.8341984,23.8735152 40.4723871,22.5758788 L48.4748022,22.5758788 C48.7301984,18.3851515 46.6870286,15.6835152 42.664538,15.6835152 Z M40.387255,20.5549697 C40.6426512,19.2360606 41.451406,18.3426061 42.6858211,18.3426061 C43.9628022,18.3426061 44.8141229,19.2360606 44.8141229,20.5549697 L40.387255,20.5549697 Z M50.539255,11.5353333 L50.539255,27.319697 L54.3276324,27.319697 L54.3276324,11.5353333 L50.539255,11.5353333 Z M57.4349531,11.5353333 L57.4349531,27.319697 L61.2233305,27.319697 L61.2233305,11.5353333 L57.4349531,11.5353333 Z M69.5662739,15.6835152 C65.7778965,15.6835152 63.2877833,18.0235152 63.2877833,21.5547879 C63.2877833,25.1073333 65.7778965,27.4473333 69.5662739,27.4473333 C73.3546512,27.4473333 75.8660475,25.1073333 75.8660475,21.5547879 C75.8660475,18.0235152 73.3546512,15.6835152 69.5662739,15.6835152 Z M69.5662739,18.7467879 C71.0560852,18.7467879 72.0563871,19.8955152 72.0563871,21.5973333 C72.0563871,23.3204242 71.0560852,24.4691515 69.5662739,24.4691515 C68.0977456,24.4691515 67.0974437,23.3204242 67.0974437,21.5973333 C67.0974437,19.8955152 68.0977456,18.7467879 69.5662739,18.7467879 Z M77.4409909,12.4926061 L77.4409909,16.3004242 L78.1007645,22.1504242 L80.3780475,22.1504242 L81.0378211,16.3004242 L81.0378211,12.4926061 L77.4409909,12.4926061 Z M79.1649154,23.809697 C78.1007645,23.809697 77.3558588,24.5542424 77.3558588,25.6391515 C77.3558588,26.7240606 78.1007645,27.4898788 79.1649154,27.4898788 C80.2290663,27.4898788 80.995255,26.7240606 80.995255,25.6391515 C80.995255,24.5542424 80.2290663,23.809697 79.1649154,23.809697 Z" id="Hello!-Copy" fill="#C59272" opacity="0.600000024"></path>
                <path d="M20.6670478,38.7825235 L2.05216311,38.7825235 C0.391808241,38.7825235 0.103172387,37.9688032 1.41980483,36.9555409 L10.5032221,29.9650672 L20.6670478,38.7825235 Z" id="Path-19" fill="#FFFFFF"></path>
                <path d="M20.0052173,11.5211515 L20.0052173,26.4333333 L23.9000097,26.4333333 L23.9000097,20.7109697 L29.9231041,20.7109697 L29.9231041,26.4333333 L33.8178965,26.4333333 L33.8178965,11.5211515 L29.9231041,11.5211515 L29.9231041,17.6051515 L23.9000097,17.6051515 L23.9000097,11.5211515 L20.0052173,11.5211515 Z M41.7777456,14.7971515 C38.1809154,14.7971515 35.7759343,17.1584242 35.7759343,20.7322424 C35.7759343,24.2422424 38.0957833,26.5609697 41.8628777,26.5609697 C43.9911795,26.5609697 45.7151041,25.837697 46.8856701,24.5187879 L44.9063494,22.5404242 C44.1401607,23.3062424 43.1824248,23.7104242 42.203406,23.7104242 C40.9051418,23.7104242 39.947406,22.9871515 39.5855946,21.6895152 L47.5880097,21.6895152 C47.843406,17.4987879 45.8002362,14.7971515 41.7777456,14.7971515 Z M39.5004626,19.6686061 C39.7558588,18.349697 40.5646135,17.4562424 41.7990286,17.4562424 C43.0760097,17.4562424 43.9273305,18.349697 43.9273305,19.6686061 L39.5004626,19.6686061 Z M49.6524626,10.6489697 L49.6524626,26.4333333 L53.4408399,26.4333333 L53.4408399,10.6489697 L49.6524626,10.6489697 Z M56.5481607,10.6489697 L56.5481607,26.4333333 L60.336538,26.4333333 L60.336538,10.6489697 L56.5481607,10.6489697 Z M68.6794814,14.7971515 C64.8911041,14.7971515 62.4009909,17.1371515 62.4009909,20.6684242 C62.4009909,24.2209697 64.8911041,26.5609697 68.6794814,26.5609697 C72.4678588,26.5609697 74.979255,24.2209697 74.979255,20.6684242 C74.979255,17.1371515 72.4678588,14.7971515 68.6794814,14.7971515 Z M68.6794814,17.8604242 C70.1692928,17.8604242 71.1695946,19.0091515 71.1695946,20.7109697 C71.1695946,22.4340606 70.1692928,23.5827879 68.6794814,23.5827879 C67.2109531,23.5827879 66.2106512,22.4340606 66.2106512,20.7109697 C66.2106512,19.0091515 67.2109531,17.8604242 68.6794814,17.8604242 Z M76.5541984,11.6062424 L76.5541984,15.4140606 L77.213972,21.2640606 L79.491255,21.2640606 L80.1510286,15.4140606 L80.1510286,11.6062424 L76.5541984,11.6062424 Z M78.2781229,22.9233333 C77.213972,22.9233333 76.4690663,23.6678788 76.4690663,24.7527879 C76.4690663,25.837697 77.213972,26.6035152 78.2781229,26.6035152 C79.3422739,26.6035152 80.1084626,25.837697 80.1084626,24.7527879 C80.1084626,23.6678788 79.3422739,22.9233333 78.2781229,22.9233333 Z" id="Hello!" fill="#A14912"></path>
            </g>
        </g>
    </g>
</svg>