<?xml version="1.0" encoding="UTF-8"?>
<svg width="120px" height="120px" viewBox="0 0 120 120" version="1.1" xmlns="http://www.w3.org/2000/svg" xmlns:xlink="http://www.w3.org/1999/xlink">
    <!-- Generator: Sketch 41.2 (35397) - http://www.bohemiancoding.com/sketch -->
    <title>uid</title>
    <desc>Created with Sketch.</desc>
    <defs></defs>
    <g id="Page-1" stroke="none" stroke-width="1" fill="none" fill-rule="evenodd">
        <g id="iPad-Pro-Portrait-Copy" transform="translate(-508.000000, -475.000000)">
            <g id="Group-6" transform="translate(542.000000, 481.000000)">
                <g id="Page-1-Copy">
                    <path d="M49.8213167,107.778916 L4.865892,98.7093559 C3.86441407,98.508003 3.05906613,97.3623743 3.05906613,96.1507851 L3.05906613,11.7578745 C3.05906613,10.5445495 3.86441407,9.39892085 4.865892,9.19756793 L49.8213167,0.128007503 C51.2844812,-0.167078673 52.4820891,0.794555102 52.4820891,2.28040079 L52.4820891,105.628259 C52.4820891,107.112369 51.2844812,108.074002 49.8213167,107.778916" id="Fill-4" fill="#FEFEFE"></path>
                    <path d="M49.8213167,107.778916 L4.865892,98.7093559 C3.86441407,98.508003 3.05906613,97.3623743 3.05906613,96.1507851 L3.05906613,11.7578745 C3.05906613,10.5445495 3.86441407,9.39892085 4.865892,9.19756793 L49.8213167,0.128007503 C51.2844812,-0.167078673 52.4820891,0.794555102 52.4820891,2.28040079 L52.4820891,105.628259 C52.4820891,107.112369 51.2844812,108.074002 49.8213167,107.778916 Z" id="Stroke-6" stroke="#844722" stroke-width="2" fill="#CCB3A5"></path>
                    <path d="M45.9072216,106.168093 L1.87864126,97.285999 C0.897991291,97.0881177 0.108264322,95.9667902 0.108264322,94.7795023 L0.108264322,12.1241285 C0.108264322,10.9368406 0.897991291,9.8155131 1.87864126,9.61763178 L45.9072216,0.735537867 C47.3408797,0.445659093 48.5141884,1.38819906 48.5141884,2.84280033 L48.5141884,104.06083 C48.5141884,105.515432 47.3408797,106.457972 45.9072216,106.168093" id="Fill-8" fill="#FEFEFE"></path>
                    <path d="M45.9072216,106.168093 L1.87864126,97.285999 C0.897991291,97.0881177 0.108264322,95.9667902 0.108264322,94.7795023 L0.108264322,12.1241285 C0.108264322,10.9368406 0.897991291,9.8155131 1.87864126,9.61763178 L45.9072216,0.735537867 C47.3408797,0.445659093 48.5141884,1.38819906 48.5141884,2.84280033 L48.5141884,104.06083 C48.5141884,105.515432 47.3408797,106.457972 45.9072216,106.168093 Z" id="Stroke-10" stroke="#844722" stroke-width="2" fill="#FDFDFD"></path>
                    <path d="M43.274914,87.8953154 L3.73302433,82.6306309 C3.56640062,82.6080654 3.43101885,82.4275421 3.43101885,82.2261892 L3.43101885,20.6139314 C3.43101885,20.4125784 3.56640062,20.2303193 3.73302433,20.2042823 L43.274914,14.2053539 C43.507493,14.1706379 43.6966803,14.3338032 43.6966803,14.5716079 L43.6966803,87.5221182 C43.6966803,87.7581871 43.507493,87.9265598 43.274914,87.8953154" id="Fill-12" fill="#844722" opacity="0.400000006"></path>
                    <path d="M29.9219327,11.0984436 L17.6733542,13.2126493 C17.3279571,13.2734023 17.0485153,13.0043532 17.0485153,12.613798 L17.0485153,11.6417494 C17.0485153,11.2511941 17.3279571,10.8832043 17.6733542,10.8207155 L29.9219327,8.57979634 C30.3055144,8.5103643 30.6179339,8.78809246 30.6179339,9.20121311 L30.6179339,10.2288073 C30.6179339,10.6436638 30.3055144,11.0324832 29.9219327,11.0984436" id="Fill-14" fill="#844722"></path>
                    <path d="M15.8621892,12.3867552 C15.8621892,13.068925 15.377939,13.7042282 14.784342,13.8066404 C14.1942164,13.9090527 13.7186445,13.443858 13.7186445,12.7668956 C13.7186445,12.091669 14.1942164,11.4563658 14.784342,11.3487462 C15.377939,11.2393907 15.8621892,11.7045854 15.8621892,12.3867552" id="Fill-16" fill="#844722"></path>
                    <path d="M19.4588314,92.5326815 C19.4588314,90.4983226 20.7918211,89.0246276 22.5569911,88.9725535 C22.3625968,88.9083289 22.1664668,88.8475759 21.9633941,88.8180672 C19.9291963,88.5143021 18.3046151,90.093881 18.3046151,92.3400075 C18.3046151,94.5878699 19.9291963,96.707283 21.9633941,97.0804802 C22.1664668,97.1186678 22.3625968,97.1221394 22.5569911,97.1238752 C20.7918211,96.4833646 19.4588314,94.5670403 19.4588314,92.5326815" id="Fill-18" fill="#844722"></path>
                    <path d="M43.6965067,22.0426692 L3.43084528,26.9237417 L3.43084528,20.6106333 C3.43084528,20.4110162 3.56449139,20.2304929 3.72937943,20.2044559 L43.2799475,14.2037917 C43.5090551,14.1690757 43.6965067,14.332241 43.6965067,14.5665741 L43.6965067,22.0426692 Z" id="Fill-20" fill="#844722"></path>
                    <polygon id="Fill-22" fill="#FEFEFE" points="41.5711866 19.5816505 4.97124679 24.4054416 4.97124679 21.8381918 41.5711866 16.5891295"></polygon>
                    <path d="M41.1723311,46.8030031 L23.2047408,47.2681978 C23.0138178,47.2734052 22.8610794,47.1067683 22.8610794,46.8967364 L22.8610794,27.1190193 C22.8610794,26.9089874 23.0138178,26.7215209 23.2047408,26.7006913 L41.1723311,24.6871621 C41.3927603,24.6611251 41.5715337,24.8260262 41.5715337,25.0516803 L41.5715337,46.3829393 C41.5715337,46.6085934 41.3927603,46.7977957 41.1723311,46.8030031" id="Fill-24" fill="#C7733F"></path>
                    <path d="M22.8603851,37.0083986 L22.8603851,27.1959153 C22.8603851,26.9442242 23.118999,26.709891 23.4400968,26.6734392 L40.8991376,24.7171914 C41.2705696,24.6755322 41.5708394,24.8612629 41.5708394,25.1337837 L41.5708394,35.7169626" id="Fill-26" fill="#FEFEFE"></path>
                    <polygon id="Fill-28" fill="#C7733F" points="40.5153824 26.3780059 31.7468095 27.3049236 31.7468095 31.0698761 40.5153824 30.2748792"></polygon>
                    <polygon id="Fill-30" fill="#844722" points="30.9100461 34.9056492 24.0940948 35.4194463 24.0940948 28.1151955 30.9100461 27.3948381"></polygon>
                    <path d="M20.5458776,69.6805136 L5.26509465,68.6286182 C5.10194226,68.6182034 4.97003182,68.4515665 4.97003182,68.2571568 L4.97003182,49.9652854 C4.97003182,49.7708757 5.10194226,49.611182 5.26509465,49.6077104 L20.5458776,49.3421329 C20.7315936,49.3386613 20.8825963,49.5052982 20.8825963,49.7135943 L20.8825963,69.3264102 C20.8825963,69.5347063 20.7315936,69.6926642 20.5458776,69.6805136" id="Fill-32" fill="#C7733F"></path>
                    <path d="M4.97037896,59.1112211 L4.97037896,50.0347175 C4.97037896,49.8021201 5.19254391,49.6094462 5.46677877,49.6042388 L20.3153815,49.3456045 C20.6278009,49.3403971 20.8829435,49.5382784 20.8829435,49.7882337 L20.8829435,59.5191344" id="Fill-34" fill="#FEFEFE"></path>
                    <polygon id="Fill-36" fill="#C7733F" points="19.9902916 50.839782 12.5512372 50.9231004 12.5512372 54.3929667 19.9902916 54.4242111"></polygon>
                    <polygon id="Fill-38" fill="#844722" points="11.8392679 57.8600557 6.02479464 57.7472287 6.02479464 50.9949626 11.8392679 50.930738"></polygon>
                    <path d="M41.1723311,71.0991838 L23.2047408,69.8632935 C23.0138178,69.8494071 22.8610794,69.6688838 22.8610794,69.4588518 L22.8610794,49.6811348 C22.8610794,49.4711029 23.0138178,49.2992586 23.2047408,49.295787 L41.1723311,48.9833428 C41.3927603,48.9781354 41.5715337,49.1586587 41.5715337,49.3860486 L41.5715337,70.7155718 C41.5715337,70.9429617 41.3927603,71.114806 41.1723311,71.0991838" id="Fill-40" fill="#C7733F"></path>
                    <path d="M22.8603851,59.5706876 L22.8603851,49.7582044 C22.8603851,49.5065132 23.118999,49.2964813 23.4400968,49.2912739 L40.8991376,48.9875087 C41.2705696,48.9805655 41.5708394,49.1958048 41.5708394,49.4665898 L41.5708394,60.0515045" id="Fill-42" fill="#FEFEFE"></path>
                    <polygon id="Fill-44" fill="#C7733F" points="40.5153824 50.6120449 31.7468095 50.7092498 31.7468095 54.4724664 40.5153824 54.5089182"></polygon>
                    <polygon id="Fill-46" fill="#844722" points="30.9100461 58.2299549 24.0940948 58.098034 24.0940948 50.7937833 30.9100461 50.7191438"></polygon>
                    <path d="M20.5458776,84.797952 L5.26509465,82.7670648 C5.10194226,82.7462352 4.97003182,82.5709193 4.97003182,82.3765096 L4.97003182,71.4774149 C4.97003182,71.2830051 5.10194226,71.1354621 5.26509465,71.1493485 L20.5458776,72.374824 C20.7315936,72.3904462 20.8825963,72.5709695 20.8825963,72.7792656 L20.8825963,84.4646782 C20.8825963,84.6747102 20.7315936,84.8222532 20.5458776,84.797952" id="Fill-48" fill="#C7733F"></path>
                    <path d="M4.97037896,80.6236977 L4.97037896,71.5471941 C4.97037896,71.3145967 5.19254391,71.1427524 5.46677877,71.1653178 L20.3153815,72.3560774 C20.6278009,72.3821144 20.8829435,72.6042969 20.8829435,72.8542522 L20.8829435,82.5851529" id="Fill-50" fill="#FEFEFE"></path>
                    <polygon id="Fill-52" fill="#C7733F" points="19.9902916 73.8184897 12.5512372 73.1745075 12.5512372 76.6461096 19.9902916 77.4029189"></polygon>
                    <polygon id="Fill-54" fill="#844722" points="11.8392679 80.0432458 6.02479464 79.3628118 6.02479464 72.6105458 11.8392679 73.1139281"></polygon>
                    <path d="M41.1723311,87.6356396 L23.2047408,85.2419699 C23.0138178,85.2159329 22.8610794,85.0249948 22.8610794,84.8149629 L22.8610794,72.940348 C22.8610794,72.7303161 23.0138178,72.5723582 23.2047408,72.5879804 L41.1723311,74.0286952 C41.3927603,74.0460532 41.5715337,74.2439346 41.5715337,74.4713245 L41.5715337,87.2780646 C41.5715337,87.5054545 41.3927603,87.6651482 41.1723311,87.6356396" id="Fill-56" fill="#C7733F"></path>
                    <path d="M22.8603851,82.8295537 L22.8603851,73.0170704 C22.8603851,72.7653792 23.118999,72.5813843 23.4400968,72.6074213 L40.8991376,74.006477 C41.2705696,74.0377214 41.5708394,74.2807335 41.5708394,74.5532543 L41.5708394,85.1364332" id="Fill-58" fill="#FEFEFE"></path>
                    <polygon id="Fill-60" fill="#C7733F" points="40.5153824 75.5943878 31.7468095 74.8358427 31.7468095 78.5990594 40.5153824 79.4912611"></polygon>
                    <polygon id="Fill-62" fill="#844722" points="30.9100461 82.2747916 24.0940948 81.478059 24.0940948 74.1738082 30.9100461 74.7639806"></polygon>
                    <path d="M25.8929367,93.6033235 C25.8929367,96.07684 24.0739611,97.7449448 21.8679326,97.3370316 C19.7018243,96.9360615 17.974839,94.6777844 17.974839,92.2858506 C17.974839,89.8939167 19.7018243,88.2101897 21.8679326,88.5313129 C24.0739611,88.8559077 25.8929367,91.1298071 25.8929367,93.6033235 Z" id="Stroke-64" stroke="#844722"></path>
                    <path d="M26.2645495,55.2405165 L2.31586215,54.6555515 C2.07981189,54.6486083 1.88888889,54.3969172 1.88888889,54.093152 L1.88888889,25.415983 C1.88888889,25.110482 2.07981189,24.8327539 2.31586215,24.7928305 L26.2645495,20.8490905 C26.5787046,20.7970165 26.8355828,21.0417644 26.8355828,21.394132 L26.8355828,54.6156281 C26.8355828,54.9679957 26.5787046,55.2474597 26.2645495,55.2405165" id="Fill-74" fill="#844722" opacity="0.547497736"></path>
                    <path d="M24.3157391,53.4993764 L1.40150732,52.9387126 C1.17587104,52.9335052 0.991890696,52.6922289 0.991890696,52.4006143 L0.991890696,24.9628073 C0.991890696,24.6711927 1.17587104,24.4056151 1.40150732,24.3674275 L24.3157391,20.5937961 C24.6160089,20.5434578 24.8607375,20.777791 24.8607375,21.1145364 L24.8607375,52.900525 C24.8607375,53.2390062 24.6160089,53.5063196 24.3157391,53.4993764" id="Fill-76" fill="#C7733F"></path>
                    <path d="M0.992237828,38.6820579 L0.992237828,25.0681704 C0.992237828,24.7175386 1.30118596,24.3842648 1.68303197,24.321776 L23.9429185,20.6540284 C24.4497323,20.5724457 24.8610846,20.8310801 24.8610846,21.2355217 L24.8610846,37.0087457" id="Fill-78" fill="#FEFEFE"></path>
                    <polygon id="Fill-80" fill="#C8733F" points="23.4208309 23.141952 11.9029668 24.8794888 11.9029668 30.2778301 23.4208309 28.9256411"></polygon>
                    <polygon id="Fill-82" fill="#844722" points="10.8450798 35.7785835 2.46355992 36.481583 2.46355992 26.3028457 10.8450798 25.0391825"></polygon>
                    <path d="M14.4536981,47.7601238 C14.4536981,49.459473 13.3012174,50.8272842 11.9022725,50.8133978 C10.5276269,50.7995114 9.42895179,49.4542656 9.42895179,47.8052546 C9.42895179,46.1579794 10.5276269,44.791904 11.9022725,44.7519806 C13.3012174,44.713793 14.4536981,46.0607746 14.4536981,47.7601238" id="Fill-84" fill="#EEF3F0"></path>
                    <path d="M22.3917559,47.6882616 C22.3917559,49.4709293 21.1264571,50.9029652 19.5903947,50.8890787 C18.082103,50.8734565 16.8775524,49.4639861 16.8775524,47.7385999 C16.8775524,46.0132136 18.082103,44.5811778 19.5903947,44.5395186 C21.1264571,44.4961235 22.3917559,45.905594 22.3917559,47.6882616" id="Fill-86" fill="#EEF3F0"></path>
                    <path d="M7.21598061,47.8255635 C7.21598061,49.4502733 6.16243277,50.7573315 4.88324864,50.7451808 C3.62489248,50.7330302 2.61820755,49.4450659 2.61820755,47.8672227 C2.61820755,46.2893796 3.62489248,44.9823214 4.88324864,44.9476054 C6.16243277,44.9128894 7.21598061,46.2008537 7.21598061,47.8255635" id="Fill-88" fill="#EEF3F0"></path>
                </g>
            </g>
        </g>
    </g>
</svg>