<?xml version="1.0" encoding="UTF-8"?>
<svg width="120px" height="120px" viewBox="0 0 120 120" version="1.1" xmlns="http://www.w3.org/2000/svg" xmlns:xlink="http://www.w3.org/1999/xlink">
    <!-- Generator: Sketch 41.2 (35397) - http://www.bohemiancoding.com/sketch -->
    <title>uxd</title>
    <desc>Created with Sketch.</desc>
    <defs>
        <path d="M17.1743997,56.110453 C17.4115434,57.5978296 17.0768623,58.9870806 16.1170106,59.9139986 C14.2305151,61.7357661 10.6434822,61.0817626 8.10514825,58.4532409 C5.56681433,55.8247192 5.03839488,52.2170469 6.92489038,50.3952794 C8.38521513,48.9850602 10.8645384,49.058376 13.0876167,50.382719 C13.5404938,49.1091671 14.4641922,48.2200576 15.5723684,48.1619805 C17.2268508,48.0752728 18.666012,49.8737562 18.786825,52.1790057 C18.8769802,53.8992686 18.2075103,55.4156141 17.1743997,56.110453 Z" id="path-1"></path>
        <mask id="mask-2" maskContentUnits="userSpaceOnUse" maskUnits="objectBoundingBox" x="0" y="0" width="13.0007246" height="12.7868936" fill="white">
            <use xlink:href="#path-1"></use>
        </mask>
        <ellipse id="path-3" cx="69.3890977" cy="99.6890803" rx="4.81868734" ry="5.29748736"></ellipse>
        <mask id="mask-4" maskContentUnits="userSpaceOnUse" maskUnits="objectBoundingBox" x="0" y="0" width="9.63737469" height="10.5949747" fill="white">
            <use xlink:href="#path-3"></use>
        </mask>
    </defs>
    <g id="Page-1" stroke="none" stroke-width="1" fill="none" fill-rule="evenodd">
        <g id="iPad-Pro-Portrait-Copy" transform="translate(-779.000000, -332.000000)">
            <g id="Group-16" opacity="0.699999988" transform="translate(843.000000, 411.000000)" fill="#C7733F">
                <g id="Group">
                    <polygon id="Fill-51" points="10.2666667 3.32689654 42 3.32689654 42 0 10.2666667 0"></polygon>
                    <polygon id="Fill-51-Copy" points="5.6 8.29241378 37.3333333 8.29241378 37.3333333 4.96551724 5.6 4.96551724"></polygon>
                    <polygon id="Fill-51-Copy-2" points="10.2666667 13.257931 42 13.257931 42 9.93103448 10.2666667 9.93103448"></polygon>
                    <polygon id="Fill-51" points="0 18.2234483 31.7333333 18.2234483 31.7333333 14.8965517 0 14.8965517"></polygon>
                    <polygon id="Fill-51-Copy" points="4.66666667 23.1889655 36.4 23.1889655 36.4 19.862069 4.66666667 19.862069"></polygon>
                </g>
            </g>
            <g id="Group-16-Copy-2" opacity="0.699999988" transform="translate(812.000000, 363.000000) rotate(-180.000000) translate(-812.000000, -363.000000) translate(791.000000, 351.000000)" fill="#C7733F">
                <g id="Group">
                    <polygon id="Fill-51" points="10.2666667 3.32689654 42 3.32689654 42 0 10.2666667 0"></polygon>
                    <polygon id="Fill-51-Copy" points="5.6 8.29241378 37.3333333 8.29241378 37.3333333 4.96551724 5.6 4.96551724"></polygon>
                    <polygon id="Fill-51-Copy-2" points="10.2666667 13.257931 42 13.257931 42 9.93103448 10.2666667 9.93103448"></polygon>
                    <polygon id="Fill-51" points="0 18.2234483 31.7333333 18.2234483 31.7333333 14.8965517 0 14.8965517"></polygon>
                    <polygon id="Fill-51-Copy" points="4.66666667 23.1889655 36.4 23.1889655 36.4 19.862069 4.66666667 19.862069"></polygon>
                </g>
            </g>
            <g id="Group-16-Copy" transform="translate(844.000000, 431.000000)"></g>
            <g id="Group-5" transform="translate(786.000000, 339.000000)">
                <use id="Combined-Shape" stroke="#824C23" mask="url(#mask-2)" stroke-width="4" fill="#FFFFFF" xlink:href="#path-1"></use>
                <path d="M40.9423218,71.2728572 C40.2310348,71.9837323 38.5395131,73.6536509 37.700081,74.114295 C33.7712727,76.2702555 27.0805452,76.0039508 23.7526075,72.6779398 L11.6881435,59.80905 L17.8257182,53.8696689 L28.0108671,64.8522763 C28.0108671,64.8522763 35.8226996,70.7237046 41.2804778,60.417855" id="Stroke-6-Copy-2" stroke="#824C23" stroke-width="2" stroke-linecap="round" fill="#D9C7BC"></path>
                <use id="Oval-8" stroke="#824C23" mask="url(#mask-4)" stroke-width="4" fill="#FFFFFF" xlink:href="#path-3"></use>
                <path d="M51.0780858,62.6066688 L63.9069108,62.6066688 C69.4726428,62.6066688 73.9845424,67.1144517 73.9845424,72.6751054 L74.013297,97.8109744 L67.131697,97.8184822" id="Stroke-6-Copy" stroke="#824C23" stroke-width="2" fill="#D9C7BC"></path>
                <g id="Group-3" transform="translate(61.905451, 22.669311)">
                    <g id="Group-4" transform="translate(0.963737, 0.000000)">
                        <path d="M43.8794476,15.896623 C43.8794476,24.6762997 34.0566361,31.793246 21.9404436,31.793246 C9.82281147,31.793246 0,24.6762997 0,15.896623 C0,7.11694631 9.82281147,0 21.9404436,0 C34.0566361,0 43.8794476,7.11694631 43.8794476,15.896623" id="Fill-1" fill="#FFDF40"></path>
                        <g id="Group-2-Copy" transform="translate(10.374859, 13.931511)" fill="#824C23">
                            <ellipse id="Oval-7" cx="2.40934367" cy="2.4079488" rx="2.40934367" ry="2.4079488"></ellipse>
                            <ellipse id="Oval-7-Copy" cx="11.0829809" cy="2.4079488" rx="2.40934367" ry="2.4079488"></ellipse>
                            <ellipse id="Oval-7-Copy-2" cx="19.7566181" cy="2.4079488" rx="2.40934367" ry="2.4079488"></ellipse>
                        </g>
                    </g>
                </g>
                <path d="M67.678637,71.1977362 L67.678637,105.804577 L56.8988221,105.804577 L45.2992774,105.804577 L36.7345507,105.804577 L36.7345507,71.1977362 C36.7345507,65.3891118 40.9673981,60.6803097 46.1889004,60.6803097 L58.2242874,60.6803097" id="Stroke-6" stroke="#824C23" stroke-width="2" stroke-linecap="round" fill="#D9C7BC"></path>
                <path d="M45.5899096,64.7359582 C45.6662116,67.7291605 48.1251537,70.1542154 51.1513225,70.1542154 C54.1774913,70.1542154 56.6364334,67.7291605 56.7127355,64.7359582" id="Stroke-35" stroke="#824C23" stroke-width="2" fill="#FFFFFF"></path>
                <path d="M79.526046,29.3120339 C79.526046,45.2388623 66.603643,58.1494746 50.6622695,58.1494746 C34.7223356,58.1494746 21.7999326,45.2388623 21.7999326,29.3120339 C21.7999326,13.3852056 34.7223356,0.474593224 50.6622695,0.474593224 C66.603643,0.474593224 79.526046,13.3852056 79.526046,29.3120339" id="Fill-8" fill="#824C23"></path>
                <path d="M73.611484,39.7288384 C73.611484,41.8877989 73.3811381,44.0007322 72.934843,45.995721 C71.7831137,51.3406225 69.1715675,56.0138154 65.6386378,59.4529057 C61.7213184,63.2487063 56.6666663,65.5414331 51.1513225,65.5414331 C45.8965575,65.5414331 41.0578547,63.4730886 37.2326737,59.9894095 C33.5615364,56.6394968 30.810343,51.9950709 29.5204062,46.6659912 C28.9834124,44.462442 28.6911611,42.1409482 28.6911611,39.7288384 C28.6911611,38.8054189 28.7372302,37.8834378 28.8293686,36.9744018 C30.0113308,23.9947487 39.5678049,13.9004219 51.1513225,13.9004219 C61.4751363,13.9004219 70.1706927,21.9105824 72.7966355,32.8218909 C73.335069,35.0096184 73.611484,37.3325505 73.611484,39.7288384" id="Fill-11" fill="#FEFEFE"></path>
                <path d="M73.611484,39.7288384 C73.611484,41.8877989 73.3811381,44.0007322 72.934843,45.995721 C71.7831137,51.3406225 69.1715675,56.0138154 65.6386378,59.4529057 C61.7213184,63.2487063 56.6666663,65.5414331 51.1513225,65.5414331 C45.8965575,65.5414331 41.0578547,63.4730886 37.2326737,59.9894095 C33.5615364,56.6394968 30.810343,51.9950709 29.5204062,46.6659912 C28.9834124,44.462442 28.6911611,42.1409482 28.6911611,39.7288384 C28.6911611,38.8054189 28.7372302,37.8834378 28.8293686,36.9744018 C30.0113308,23.9947487 39.5678049,13.9004219 51.1513225,13.9004219 C61.4751363,13.9004219 70.1706927,21.9105824 72.7966355,32.8218909 C73.335069,35.0096184 73.611484,37.3325505 73.611484,39.7288384 Z" id="Stroke-13" stroke="#824C23" stroke-width="2"></path>
                <path d="M74.3624745,29.1674112 C72.1022057,29.9211056 69.6763758,30.2893227 67.1526489,30.191515 C60.2739456,29.9239823 54.3382206,26.2432496 50.8959895,20.860951 C46.1335888,27.7563917 38.0657249,32.1634903 29.0750378,31.8139717 C28.3652846,31.7866431 27.6742471,31.7276708 26.9846491,31.6341782 C28.7770279,18.2517876 39.4449207,8.20204956 51.8821578,8.68533452 C62.9675525,9.11540059 71.9812741,17.7685027 74.3624745,29.1674112" id="Fill-15" fill="#824C23"></path>
                <path d="M60.6115562,21.9538325 C57.9754905,26.2335793 53.2813108,29.1265274 47.8849588,29.1992397 C47.4589621,29.2051377 47.0431819,29.1914941 46.6271798,29.1571278 C47.280462,21.0849136 53.354809,14.7304817 60.8198276,14.6297634" id="Fill-15-Copy" fill="#824C23"></path>
                <path d="M40.0741125,54.1051274 C40.0741125,56.1238613 39.1508874,57.9300969 37.7052805,59.1256918 C34.7240813,56.3223487 32.4919801,52.4354978 31.4448792,47.9753685 C32.1180155,47.7383511 32.8285482,47.6134208 33.5764774,47.6134208 C37.168875,47.6134208 40.0741125,50.5171752 40.0741125,54.1051274" id="Fill-27" fill="#824C23" opacity="0.100000001"></path>
                <path d="M71.7847013,46.5412887 C70.8829581,50.8555715 68.8382554,54.629302 66.0710309,57.4052631 C64.6755833,56.2509588 63.7738401,54.5088039 63.7738401,52.5504281 C63.7738401,49.1010289 66.5760071,46.289031 70.0409554,46.289031 C70.6417418,46.289031 71.2312564,46.3734923 71.7847013,46.5412887" id="Fill-29" fill="#824C23" opacity="0.100000001"></path>
                <path d="M51.4277376,61.0059209 C54.5862614,61.0059209 57.1464233,58.448095 57.1464233,55.292453 L45.7090519,55.292453 C45.7090519,58.448095 48.2692138,61.0059209 51.4277376,61.0059209" id="Fill-17" fill="#C7733F"></path>
                <path d="M41.4839945,37.636905 C41.4839945,38.9472401 40.4200846,40.0101793 39.1085528,40.0101793 C37.797021,40.0101793 36.7345507,38.9472401 36.7345507,37.636905 C36.7345507,36.3265699 37.797021,35.2636306 39.1085528,35.2636306 C40.4200846,35.2636306 41.4839945,36.3265699 41.4839945,37.636905" id="Fill-19" fill="#824C23"></path>
                <path d="M61.3281468,37.636905 C61.3281468,38.9472401 60.2642368,40.0101793 58.9527051,40.0101793 C57.6411733,40.0101793 56.578703,38.9472401 56.578703,37.636905 C56.578703,36.3265699 57.6411733,35.2636306 58.9527051,35.2636306 C60.2642368,35.2636306 61.3281468,36.3265699 61.3281468,37.636905" id="Fill-21" fill="#824C23"></path>
                <path d="M47.1607244,42.4227205 L35.2979124,42.4227205 C34.5176158,42.4227205 33.8841646,41.7898474 33.8841646,41.0102627 L33.8841646,34.2629719 C33.8841646,33.4833872 34.5176158,32.850514 35.2979124,32.850514 L47.1607244,32.850514 C47.941021,32.850514 48.5744721,33.4833872 48.5744721,34.2629719 L48.5744721,41.0102627 C48.5744721,41.7898474 47.941021,42.4227205 47.1607244,42.4227205 Z" id="Stroke-23" stroke="#824C23" stroke-width="2"></path>
                <path d="M67.0048767,42.4227205 L55.1420646,42.4227205 C54.361768,42.4227205 53.7283169,41.7898474 53.7283169,41.0102627 L53.7283169,34.2629719 C53.7283169,33.4833872 54.361768,32.850514 55.1420646,32.850514 L67.0048767,32.850514 C67.7851733,32.850514 68.4186244,33.4833872 68.4186244,34.2629719 L68.4186244,41.0102627 C68.4186244,41.7898474 67.7851733,42.4227205 67.0048767,42.4227205 Z" id="Stroke-25" stroke="#824C23" stroke-width="2"></path>
                <path d="M48.5740402,36.7629647 C48.5740402,36.7629647 51.2244573,35.4195476 53.728029,36.7629647" id="Stroke-31" stroke="#824C23" stroke-width="2"></path>
                <path d="M55.0481987,42.4227205 L55.0481987,47.4226645 C55.0481987,49.0923093 53.5307953,50.4460059 51.6592352,50.4460059 L50.4542384,50.4460059 C48.5826782,50.4460059 47.0652748,49.0923093 47.0652748,47.4226645 L47.0652748,42.4227205" id="Stroke-33" stroke="#824C23" stroke-width="2"></path>
                <path d="M62.8230915,81.1700919 L60.289287,82.6674122 C59.889061,82.9033013 59.3923777,82.9033013 58.9921518,82.6674122 L56.4583473,81.1700919 C56.0710783,80.9413945 55.8335341,80.5242736 55.8335341,80.075509 L55.8335341,74.943483 L63.4479046,74.943483 L63.4479046,80.075509 C63.4479046,80.5242736 63.2103605,80.9413945 62.8230915,81.1700919 Z" id="Stroke-37" stroke="#C7733F" stroke-width="2" fill="#FFFFFF"></path>
                <path d="M39.1091287,86.3331861 C39.1091287,94.1577997 30.3545461,100.500915 19.5542044,100.500915 C8.75530235,100.500915 0.000719830827,94.1577997 0.000719830827,86.3331861 C0.000719830827,78.5085726 8.75530235,72.1654575 19.5542044,72.1654575 C30.3545461,72.1654575 39.1091287,78.5085726 39.1091287,86.3331861" id="Fill-39" fill="#FFDF40"></path>
                <g id="Group-2" transform="translate(8.673637, 83.796618)" fill="#824C23">
                    <ellipse id="Oval-7" cx="2.40934367" cy="2.4079488" rx="2.40934367" ry="2.4079488"></ellipse>
                    <ellipse id="Oval-7-Copy" cx="11.0829809" cy="2.4079488" rx="2.40934367" ry="2.4079488"></ellipse>
                    <ellipse id="Oval-7-Copy-2" cx="19.7566181" cy="2.4079488" rx="2.40934367" ry="2.4079488"></ellipse>
                </g>
            </g>
        </g>
    </g>
</svg>